<?xml version="1.0" encoding="utf-8"?>
<!-- Generator: Adobe Illustrator 26.0.1, SVG Export Plug-In . SVG Version: 6.00 Build 0)  -->
<svg version="1.1" id="Layer_1" xmlns="http://www.w3.org/2000/svg" xmlns:xlink="http://www.w3.org/1999/xlink" x="0px" y="0px"
	 viewBox="0 0 847 204.5" style="enable-background:new 0 0 847 204.5;" xml:space="preserve">
<style type="text/css">
	.st0{clip-path:url(#SVGID_00000059291427682954581760000003952659225729108639_);}
	.st1{fill:#761315;}
</style>
<g>
	<g>
		<path d="M238.6,44.4H229v42.2l-2-3.1c-2.3-5.9-5.7-10.3-10.2-13c-3.2-2-6.5-3.1-9.8-3.3l-5-7.4c3.8-2.8,7-5,9.6-6.4
			c5.1-2.7,9.6-4.8,13.6-6.1v-2.8h-25.1l-3.8-4.2h38.4L238.6,44.4z M225.2,75.1V53.7c-4.6,1.7-9.6,4.4-15,8.2
			C216.9,64.9,221.9,69.3,225.2,75.1z"/>
		<path d="M275.1,35.8l-6.6-5.2c-4-3.2-8.5-4.7-13.6-4.7c-2.9,0-5.3,0.7-7.4,2.2l-1.9,1.3c-0.5,0.5-1.1,1.2-1.8,2.2
			c-2,2.7-2.9,4.4-2.6,5.2l1.5,3.5h7.2l3.9,4.2H244v41.3l-4-4V44.4h-5.7l-3.9-4.2h10l-3.4-3.8c-0.4-0.4-0.5-1.1-0.5-1.9
			c0.1-1.5,0.3-2.6,0.8-3.4c1.3-2.2,2.2-3.7,2.9-4.3c1.4-1.6,3.5-3,6.1-4.3c1.4-0.7,3.1-1.1,5.1-1.1c5,0,10.3,1.9,16,5.6
			c1.8,1.1,4.1,3.2,6.9,6.3L275.1,35.8z"/>
		<path d="M286.4,44.4h-9.1v41.3l-1.5-1.5l-3.5-6.8c-1.6-3-4-5.6-7.1-7.5c-3.1-2-6.4-3.1-9.8-3.3l-5.1-7.3c7.7-5.8,15.4-9.9,23-12.3
			v-2.7h-23.7l-3.9-4.2h36.7L286.4,44.4z M262.6,82.4c-0.9,0-1.8-0.3-2.6-1c-0.8-0.7-1.3-1.5-1.5-2.5c-0.3-1.2,0-2.3,0.7-3.3
			c0.8-1,1.7-1.6,2.9-1.6c0.9,0,1.8,0.3,2.6,1c0.8,0.7,1.3,1.4,1.5,2.4c0.3,1.2,0,2.3-0.7,3.4C264.7,81.9,263.7,82.4,262.6,82.4z
			 M273.3,75.7V53.1c-3,1.1-5.9,2.4-8.6,3.8c-1.3,0.8-3.5,2.3-6.4,4.5C265.4,64.5,270.4,69.3,273.3,75.7z"/>
		<path d="M326.7,44.5h-8.9v41.7l-4-4.2l0.2-25.5c0-1.2-0.8-3-2.4-5.5c-1.9-2.9-3.6-4.2-5.1-4.1c-0.9,0.1-1.8,0.5-2.6,1.1
			s-1.3,1.3-1.3,2.2c1.8,1.4,3,2.4,3.4,2.9c1.6,1.7,2.4,3.4,2.4,5.1c0,0.5-0.2,1.5-0.5,2.9c-0.6,1.7-2.1,2.6-4.5,2.6
			c-2.3,0-4.2-1.5-5.8-4.4c-0.9,2.2-2.5,3.8-4.9,4.6c-0.5,0.2-0.9,0.2-1.3,0.2c-2.2,0-3.7-1.4-4.5-4.2c-0.2-0.5-0.2-1.1-0.2-1.7
			c0-2,1.1-4.1,3.2-6.2c0.3-0.3,0.9-0.8,2-1.7c0.5-0.4,1-0.7,1.5-0.7c-0.3-0.8-1-1.9-2.2-3.4c-1.2-1-2.3-1.5-3.4-1.5H283l-3.9-4.2h8
			c1.8,0,3.4,0.5,4.7,1.5l1.9,1.9c1.1,1.1,1.9,2.5,2.2,4.2c0.7-1.6,1.4-2.8,2.1-3.7c1.5-1.6,3.3-2.8,5.7-3.5
			c0.9-0.3,1.5-0.4,1.7-0.4c1,0,2.6,1.3,4.7,4c0.6,0.8,1.6,2.4,3,4.8c1.5,2.6,2.4,4.2,2.6,4.8l-1.1-13.2l-0.4-7.7
			c0.7,0.7,1.5,1.5,2.4,2.5c0.3,0.4,0.5,0.9,0.5,1.6c0,0.9,0.1,1.4,0.2,1.5c0.4,0.9,1.2,1.5,2.3,1.8h3.3L326.7,44.5z"/>
		<path d="M342.8,44.4h-9.7v42.8l-3.7-4.2V52.5c0-1.8-0.4-3.2-1.1-4.3c-1.7-2.5-3.7-3.7-6.2-3.7c-0.3,0-0.6,0-1,0l-4-4.2
			c2.3-0.3,4.4-0.3,6.1,0c2.7,0.4,4.7,2.3,5.9,5.5c0.4,0.9,1,2.5,1.8,5c-0.6-3-1-6.8-1.3-11.3c-0.1-1.9-0.2-4.1-0.2-6.6l1.5,1.3
			c0.2,1.6,0.5,3.1,1,4.4c0.2,0.4,0.6,1,1.2,1.6h5.8L342.8,44.4z"/>
		<path d="M382.7,44.3H373v41.9l-4-4V59.6c0-1.4-0.6-2.7-1.8-3.8c-1.2-1.2-2.4-1.7-3.7-1.5c-0.9,0.1-1.6,0.7-2.1,1.6
			s-0.6,1.9-0.5,2.9l0.3,2.1l-1.6,0.7c0.1-0.3-0.2-0.9-0.8-2c-1-1.7-1.8-2.8-2.2-3.1c-1.4-1.5-3.2-2.2-5.5-2.2
			c-1.9,0-3.5,0.7-4.9,2.1c-1.4,1.4-2.1,3.1-2.1,5c0,3.3,1.7,5.2,5.1,5.8c-0.8-1-1.2-2.1-1.2-3.2c0-1.3,0.4-2.4,1.3-3.2
			s1.9-1.2,3.1-1.2c1.9,0,3.2,1.1,4.1,3.5c0.7,2,0.9,3.3,0.6,4.1c-1,2.6-3,3.9-5.8,3.9c-2.6,0-4.9-0.7-6.9-2.2s-3.2-3.5-3.7-6.2
			c-0.2-1-0.3-2.1-0.3-3.2c0-2.8,0.7-5.3,2.2-7.5c1.6-2.5,3.7-3.7,6.2-3.8c2.7,0,5.1,1,7.2,3.2l1.4,1.9c0-0.9,0.6-2,1.7-3.1
			s2.1-1.7,3-1.7c1.5,0.1,2.7,0.6,3.6,1.5c0.4,0.6,0.9,1.2,1.3,1.8c0.7,0.8,1.4,2,1.9,3.8V44.3H339l-4-4.2h43.6L382.7,44.3z"/>
		<path d="M440,44.4h-23.1c0.2,0.6,0.5,1.3,1,2.2c0.5,0.5,1.9,1.2,4.4,2c2.1,0.7,3.8,2.3,5.3,4.7c1.6,2.7,2.3,5.2,2,7.7
			c-0.5,4.6-3,7.9-7.6,9.7c-2.1,0.8-3.3,1.4-3.6,1.7c0,0.2,1.2,1,3.6,2.6c3,2,5.4,3.8,7.1,5.5l5.9,5.8l1.2,5.5
			c-7.7-9.2-17.5-15.2-29.6-18.3l-4.7-10.2c3.3,2.2,7,3.3,11.1,3.3c2.5,0,5.1-0.7,7.6-2c1.4-0.7,2.5-1.8,3.6-3.4
			c0.6-0.9,0.8-2.3,0.4-4.2c-0.3-1.3-0.9-2.4-1.9-3.2c-1-0.8-2.1-1.3-3.3-1.3c-0.6,0-1.1,0.1-1.7,0.3c0,2-1.1,3.9-3.2,5.9
			c-1.1,1-2.5,1.5-4.1,1.5c-2.5,0-4-1.1-4.5-3.2c-0.3-1.2,0-2.5,0.7-4s1.7-2.5,2.8-3c0.2-0.2,1.9-1,5.1-2.5c0,0,0-0.1,0-0.2
			c-0.1-0.6-0.9-1.5-2.4-2.8h-12l-3.9-4.2h25.5c1.7-0.2,2.6-0.3,2.7-0.4c0.7-0.2,1.5-0.8,2.2-1.7c0.2-0.3,0.3-0.5,0.3-0.8
			c0-1-0.9-1.7-2.6-2.2c-1.4-0.4-2.7-0.5-3.8-0.4c-1.9,0-4.5,0.1-7.7,0.4c-1.3,0.1-2.2,0.2-2.7,0.2c-3,0-5.6-0.7-7.9-2.2
			c-2.7-1.7-4-4-4-6.9c0-1.4,0.4-2.7,1.2-3.8c0.1-0.3,0.6-0.4,1.5-0.4c0.8,0,1.3,0,1.4,0.1c-1.3,0.8-1.9,1.9-1.9,3.1
			c0,1.6,0.8,2.8,2.4,3.6c1.1,0.6,2,0.9,2.5,0.9c0.7,0.2,2.4,0.1,4.9-0.2s4.3-0.5,5.1-0.5c1,0,2.1,0,3.5,0.1
			c2.7,0.1,4.8,0.6,6.3,1.6c3.5,2.3,5.1,5.5,4.8,9.6h6.3L440,44.4z"/>
		<path d="M476.8,35.8l-6.6-5.2c-4-3.2-8.5-4.7-13.6-4.7c-2.9,0-5.3,0.7-7.5,2.2l-1.9,1.3c-0.5,0.5-1.1,1.2-1.8,2.2
			c-2,2.7-2.9,4.4-2.6,5.2l1.5,3.5h7.2l3.9,4.2h-9.8v41.3l-4-4V44.4H436l-3.9-4.2h10l-3.4-3.8c-0.4-0.4-0.5-1.1-0.5-1.9
			c0-1.5,0.3-2.6,0.8-3.4c1.3-2.2,2.2-3.7,2.9-4.3c1.5-1.6,3.5-3,6.1-4.3c1.4-0.7,3.1-1.1,5-1.1c5,0,10.3,1.9,16,5.6
			c1.8,1.1,4.1,3.2,6.9,6.3L476.8,35.8z"/>
		<path d="M470.3,47.9c-0.2-2-0.8-2.9-1.9-2.9c-0.8,0-1.3,0-1.5,0.2c-0.5,0.2-1.3,0.8-2.3,1.9c-0.2,0.2-0.3,0.4-0.3,0.5
			c0.2,0.2,0.3,0.5,0.5,0.9c0.5,0.9,0.7,1.8,0.7,2.7c0,1.1-0.5,2.1-1.4,3.1s-1.9,1.4-3,1.4c-3-0.2-4.5-1.9-4.5-5c0-2.6,1-4.9,3-7
			c2-2.1,4.2-3.1,6.6-3.1c2.1,0,4,0.9,5.8,2.7c0.4,0.4,1,1.1,1.7,2.1c0.4,0.6,0.7,0.8,0.9,0.7c1.1-1.2,2.7-2.5,4.6-3.8
			c1.4-0.5,2.5-0.7,3.5-0.7c0.5,0,0.9,0,1.3,0.2c4.5,0,7.1,2,7.9,5.9c0.2,1.1,0,2.2-0.5,3.3c-0.1,0.2-0.8,1.1-2,2.7
			c1.7,2.1,2.5,3.7,2.5,4.7c-0.2,2.7-1,4.6-2.4,5.7l3.3,3.3c-1.4,0.9-2.6,2.1-3.6,3.5c-2.1,2.8-3.2,5-3.3,6.4
			c-0.2,1.5,0,2.9,0.5,4.3c0.2,0.5,0.8,1.8,1.9,3.8l-2,2c-2.3-4.1-3.5-7.3-3.8-9.5c-0.1-0.9-0.2-1.8-0.2-2.8c0-1.1,0.1-2.3,0.3-3.4
			c0.8-1.8,1.6-3.9,2.3-6c0-0.1,0-0.1-0.1-0.1c-1.9,0.2-3.6-0.2-5.1-1.3c-0.2-0.1-1.4-1.2-3.8-3.3c-1.5-1.3-2.6-3.3-3.3-6
			c-0.1-0.1-0.2-0.2-0.4-0.2c-1.2,0-2.4,1.1-3.7,3.4c-1.2,2.1-1.8,3.8-1.8,5.2c0,2,0.8,3,2.6,3c0.6,0,1.5-0.5,2.7-1.4
			c0.3-0.2,0.8-0.8,1.4-1.7c0.4-0.6,1-0.9,1.7-0.9c0.3,0,0.5,0.1,0.7,0.2c0.3-0.1,1.1,0.7,2.3,2.3c2.4,3.2,3.6,6.1,3.6,8.9
			c0,2.2-0.7,4.2-2.2,5.8c-1.5,1.6-3.3,2.7-5.4,3.4c-0.9,0.3-1.8,0.4-2.6,0.4c-4.4,0-8.1-2.3-11.2-6.9c-2.7-4.1-4.1-8.6-4.4-13.5
			c0-1.3-0.1-4.1-0.1-8.3c1.2,0.7,2,1.1,2.2,1.3c-0.3,4.5,0.5,9,2.4,13.7c0.7,1.8,1.8,3.5,3.3,5c2.3,2.3,4.4,3.5,6.2,3.3
			c2.3-0.1,4.4-0.8,6.3-2c1.7-1,2.5-2.3,2.5-3.7c0-0.7-0.2-1.4-0.5-2c-0.3-0.9-0.8-1.4-1.5-1.4c-0.3,0-0.6,0.1-0.9,0.2
			c-2.1,1-4,1.6-5.5,1.6c-2.2,0-4.1-0.8-5.5-2.2c-1.5-1.5-2.2-3.4-2.2-5.7c0-3.5,2-7.3,5.9-11.6C469.7,49.8,470.4,48.6,470.3,47.9z
			 M488,57.4c-0.4,0-1.1,0.1-1.9,0.4c-0.9,0.2-1.5,0.4-1.9,0.4c-1.5,0-2.7-0.6-3.7-1.9c-0.5-0.6-0.7-1.6-0.7-2.9
			c0-1.8,0.9-3.2,2.6-3.9c0.5-0.2,1-0.3,1.5-0.3c0.8,0,1.8,0.4,3,1.3c0.9-0.3,1.3-1.1,1.3-2.3c0-0.4,0-0.8-0.1-1.2
			c-0.3-1.4-1.2-2.1-2.7-2.1c-1.7,0-3.4,0.5-5,1.6c-3.5,2.3-5.2,4.2-5.2,5.7c0,0.2,0,0.4,0.2,0.6c0.5,1.7,0.8,2.8,0.9,3.2
			c1,2.9,3.1,4.8,6.3,5.6c0.6,0.2,1.1,0.2,1.5,0.2c1.7,0,3-0.8,4-2.5c0.3-0.5,0.4-0.9,0.3-1.3C488.2,57.7,488.1,57.6,488,57.4z"/>
		<path d="M534.6,35.8l-6.6-5.2c-4-3.2-8.5-4.7-13.6-4.7c-2.8,0-5.3,0.7-7.5,2.2l-1.9,1.3c-0.5,0.5-1.1,1.2-1.8,2.2
			c-2,2.7-2.9,4.4-2.6,5.2l1.5,3.5h7.2l3.9,4.2h-9.8v41.3l-4-4V44.4h-5.7l-3.9-4.2h10l-3.4-3.8c-0.4-0.4-0.5-1.1-0.5-1.9
			c0-1.5,0.3-2.6,0.8-3.4c1.3-2.2,2.2-3.7,2.9-4.3c1.5-1.6,3.5-3,6.1-4.3c1.4-0.7,3.1-1.1,5-1.1c5,0,10.3,1.9,16,5.6
			c1.8,1.1,4.1,3.2,6.9,6.3L534.6,35.8z"/>
		<path d="M548.3,44.4h-9.9V87l-1.5-2c0.3-1.7-0.1-4.7-1.2-8.7c-1.8-7-4.2-11.9-7.3-14.8c-2.2-2.1-4.4-3-6.6-2.9
			c-0.4,0-0.6,0.1-0.6,0.2l1.2,1.9c0.5,0.8,0.9,1.7,1.1,2.6c0.4,2,0.1,3.6-0.8,4.9c-1,1.2-2.4,1.8-4.3,1.8c-4.2,0-6.6-2-7.2-5.9
			c-0.1-0.7-0.2-1.3-0.2-1.9c0-2.7,0.9-4.9,2.7-6.6c1.8-1.7,4-2.6,6.6-2.6c4.6,0,8.7,3.1,12.1,9.4c1.3,2.4,1.9,3.7,1.9,3.8V44.4
			h-26.4l-3.9-4.2h40.1L548.3,44.4z"/>
		<path d="M582.8,44.4h-10.1v42.1l-1.6-1.9l-1.7-3.8c-1-2.1-2.5-4.3-4.7-6.4s-4.2-3.6-6.2-4.4c-1.5-0.6-3.8-1-6.8-1.1l-5.2-6.9
			c2.7-2.8,5.1-5.2,7.2-6.9c0.4-0.3,1.8-1.5,4.3-3.5c-0.8-0.9-1.4-1.4-1.6-1.5c-1.4-0.9-3.3-1.4-5.8-1.7c-3.1-0.3-5.4-1.5-6.8-3.6
			l-4.1-4.3h39.1L582.8,44.4z M557.3,83.6c-1,0-1.9-0.3-2.7-1c-0.8-0.7-1.3-1.5-1.6-2.5c-0.3-1.3,0-2.5,0.7-3.6
			c0.8-1.1,1.8-1.6,3.1-1.6c1,0,1.9,0.3,2.7,1s1.3,1.5,1.5,2.4c0.3,1.2,0,2.4-0.8,3.6C559.6,83.1,558.6,83.6,557.3,83.6z
			 M568.7,75.8V44.4h-14.1c1.2,0.9,2.6,1.9,4,3.2c0.4,0.4,2.2,2.5,5.4,6.3c-1,1.1-2.3,2.5-4,4c-1,0.9-2.7,2.8-5.2,5.9
			c1.6,0.5,2.9,1.1,3.9,1.7C562.9,67.9,566.2,71.3,568.7,75.8z"/>
		<path d="M598.2,44.4h-9.7v42.8l-3.7-4.2V52.5c0-1.8-0.4-3.2-1.1-4.3c-1.7-2.5-3.7-3.7-6.2-3.7c-0.3,0-0.7,0-1,0l-4-4.2
			c2.3-0.3,4.4-0.3,6.1,0c2.7,0.4,4.7,2.3,5.9,5.5c0.4,0.9,1,2.5,1.8,5c-0.6-3-1-6.8-1.3-11.3c-0.1-1.9-0.2-4.1-0.2-6.6l1.5,1.3
			c0.2,1.6,0.5,3.1,1,4.4c0.2,0.4,0.7,1,1.2,1.6h5.8L598.2,44.4z"/>
		<path d="M634.7,35.8l-6.6-5.2c-4-3.2-8.5-4.7-13.6-4.7c-2.8,0-5.3,0.7-7.5,2.2l-1.9,1.3c-0.5,0.5-1.1,1.2-1.8,2.2
			c-2,2.7-2.8,4.4-2.6,5.2l1.5,3.5h7.2l3.9,4.2h-9.8v41.3l-4-4V44.4h-5.7l-3.8-4.2h10l-3.4-3.8c-0.4-0.4-0.5-1.1-0.5-1.9
			c0-1.5,0.3-2.6,0.8-3.4c1.3-2.2,2.2-3.7,2.9-4.3c1.4-1.6,3.5-3,6.1-4.3c1.4-0.7,3.1-1.1,5-1.1c5,0,10.3,1.9,16,5.6
			c1.8,1.1,4.1,3.2,6.9,6.3L634.7,35.8z"/>
		<path d="M646,44.4h-9.1v41.3l-1.5-1.5l-3.5-6.8c-1.6-3-4-5.6-7.1-7.5c-3.1-2-6.4-3.1-9.8-3.3l-5-7.3c7.7-5.8,15.4-9.9,23-12.3
			v-2.7h-23.7l-3.9-4.2H642L646,44.4z M622.2,82.4c-0.9,0-1.8-0.3-2.6-1c-0.8-0.7-1.3-1.5-1.5-2.5c-0.3-1.2,0-2.3,0.7-3.3
			c0.8-1,1.7-1.6,2.9-1.6c0.9,0,1.8,0.3,2.6,1c0.8,0.7,1.3,1.4,1.5,2.4c0.3,1.2,0,2.3-0.7,3.4C624.3,81.9,623.3,82.4,622.2,82.4z
			 M632.9,75.7V53.1c-3,1.1-5.9,2.4-8.6,3.8c-1.3,0.8-3.5,2.3-6.4,4.5C625,64.5,630,69.3,632.9,75.7z"/>
		<path d="M659.8,58.5c-1.1,1.4-2.2,2.2-3,2.5c-0.6,0.2-1.5,0.3-2.7,0.3c-2.4,0-4.5-1-6.3-2.9s-2.6-4.1-2.6-6.7
			c0-2.7,1.2-5.1,3.6-7.3c1.4-1.4,3.1-2,5-2c2.4,0,4.4,1,6.1,2.9c1.7,2,2.5,4.2,2.5,6.7C662.3,54.4,661.5,56.5,659.8,58.5z
			 M669.1,90.6l-4.7-4.7c-3.1-3.2-8.7-7.7-16.8-13.6V63c2,1.6,4.9,4.4,8.8,8.3c2.2,2.2,6.5,7.5,12.7,15.7L669.1,90.6L669.1,90.6z
			 M655.7,55.3c1.2-0.9,2-1.8,2.3-2.5c0.2-0.5,0.3-1.4,0.3-2.8c0-2.2-0.8-3.3-2.6-3.3c-1.3,0-2.9,0.9-4.7,2.6
			c-1.2,1.1-1.9,2.8-1.9,5.1c-0.1,2,0.7,3,2.2,3C652.4,57.3,653.9,56.6,655.7,55.3z"/>
		<path d="M734.6,44.4h-20.8v3c0.2-0.1,0.5-0.2,0.8-0.2c3,0,5.9,1.4,8.6,4.2c2.5,2.6,4.2,5.5,4.8,8.7c0.3,1.2,0.4,2.4,0.4,3.4
			c0,2.1-0.5,3.9-1.6,5.4c-1.2,1.7-2.7,2.5-4.7,2.5c-1.3,0-2.5-0.5-3.5-1.5c-1-1-1.6-2.2-1.6-3.5c0-1.5,0.7-2.9,2.2-4.2
			c0.8-0.3,1.6-0.4,2.2-0.4c1.1,0,2.5,0.7,4,2.1c0.1-0.1,0.1-0.3,0.1-0.7c0-2.5-1-4.8-3-6.9c-2.5-2.6-5.4-3.8-8.7-3.4v32.6l-1.4-1.5
			l-1.2-3.6c-0.5-1.6-1.7-3.4-3.4-5.6c-1.8-2.2-3.3-3.7-4.7-4.7c-3.1-2-6.2-3.1-9.5-3.5l-5.4-6.9c2.1-1.8,4.5-3.5,7.2-5.2
			c5-3.2,9.9-5.5,14.6-7v-3.2h-23.6l-3.9-4.2h48.4L734.6,44.4z M710,74.5V53.1c-3.7,1.5-6.7,3-8.9,4.5c0,0-1.7,1.3-5,3.7
			C702.3,64.1,707,68.5,710,74.5z"/>
		<path d="M757.9,44.3c-1.9,0-4,0.6-6.3,1.5s-4.3,2.1-5.7,3.3c-3.9,3.4-6.2,7.8-6.8,13.4c-0.6,4.6-0.6,7.9-0.2,10.1
			c0.8,3.7,2.8,6.5,6,8.7c0.3,0.2,0.8,0.3,1.6,0.3c0.7,0,1-0.1,0.9-0.3c-0.3,0-0.8-0.5-1.3-1.5c-0.6-1-0.9-1.7-0.9-2.1
			c-0.3-2,0.5-3.5,2.5-4.7c0.7-0.4,1.4-0.7,2.2-0.7c0.9,0,1.7,0.3,2.2,0.9c1.7,0.9,2.5,2.4,2.5,4.5c0,1.9-0.7,3.5-2.1,4.8
			s-3,1.9-4.8,1.9c-2.4,0-4.4-0.7-5.9-2c-3.4-2.9-5.5-6.8-6.5-11.7c-0.4-2.1-0.6-4.1-0.6-6c0-7.1,2.6-13.9,7.8-20.4h-11.7l-3.9-4.2
			h27.3L757.9,44.3z"/>
		<path d="M797.6,44.3H788v41.9l-4-4V59.6c0-1.4-0.6-2.7-1.8-3.8c-1.2-1.2-2.4-1.7-3.7-1.5c-0.9,0.1-1.7,0.7-2.1,1.6
			s-0.6,1.9-0.5,2.9l0.3,2.1l-1.6,0.7c0.1-0.3-0.2-0.9-0.8-2c-1-1.7-1.8-2.8-2.2-3.1c-1.4-1.5-3.2-2.2-5.5-2.2
			c-1.9,0-3.5,0.7-4.9,2.1c-1.4,1.4-2.1,3.1-2.1,5c0,3.3,1.7,5.2,5.1,5.8c-0.8-1-1.2-2.1-1.2-3.2c0-1.3,0.4-2.4,1.3-3.2
			c0.8-0.8,1.9-1.2,3.1-1.2c1.9,0,3.2,1.1,4.1,3.5c0.7,2,0.9,3.3,0.6,4.1c-1,2.6-3,3.9-5.8,3.9c-2.6,0-4.9-0.7-6.9-2.2
			s-3.2-3.5-3.7-6.2c-0.2-1-0.3-2.1-0.3-3.2c0-2.8,0.7-5.3,2.2-7.5c1.6-2.5,3.7-3.7,6.2-3.8c2.7,0,5.2,1,7.2,3.2l1.4,1.9
			c0-0.9,0.6-2,1.7-3.1s2.1-1.7,3-1.7c1.5,0.1,2.7,0.6,3.6,1.5c0.4,0.6,0.8,1.2,1.3,1.8c0.7,0.8,1.4,2,1.9,3.8V44.3H754l-4-4.2h43.6
			L797.6,44.3z"/>
		<path d="M843.9,44.4h-24.2c-0.6,0.2-1.4,0.7-2.4,1.4c-0.4,0.4-0.6,0.8-0.6,1.2c0,1.2,1.3,2.3,3.9,3.2c2.2,0.7,3.9,1,5.3,0.9
			c1.2-0.1,3.6-0.8,7-2c1.7,1.7,3.6,3.8,5.8,6.3c-1.1,1.1-2.2,2.8-3.5,5.2c-1.7,3.1-2.5,5.9-2.6,8.3c-0.3,1.8-0.4,3.4-0.4,4.9
			c0,3.1,1,7,2.9,11.7c0,0.1-0.1,0.1-0.2,0.1c-0.3,0-1-0.2-2-0.4c-1-0.3-1.6-0.5-1.6-0.7c-0.1-0.6-0.7-3.1-1.7-7.6
			c-0.9-3.8-1.3-6.8-1.3-8.9c0-3.6,0.8-7.6,2.4-12c-2.4,0-5.1-0.4-7.9-1.1c-3.5-0.9-5.8-2.2-6.9-3.7c-0.2-0.3-0.9-1.3-2.2-3.1
			c-0.1,0-0.2-0.1-0.3-0.1c-1.1,0-2.4,1.2-3.9,3.8s-2.2,4.4-2.2,5.7c0,1.8,1,2.8,2.9,2.8c1,0,3.2-0.9,6.5-2.7c1-0.5,1.7-0.8,1.9-0.9
			c0.2,0,0.4,0.1,0.5,0.2c0.3-0.1,1.1,0.7,2.3,2.3c1.7,2.2,2.8,4.4,3.2,6.4c0.4,1.7,0.3,3.5-0.2,5.2c-0.9,3.4-2.8,5.8-5.7,7.3
			c-1.4,0.7-2.9,1.1-4.5,1.1c-4.5,0-8.4-2.3-11.7-6.8c-1.5-1.9-2.8-4.8-4-8.6c-1-3-1.5-8.2-1.5-15.7c1.2,0.7,2,1.1,2.2,1.3
			c-0.3,4.7,0.5,9.2,2.4,13.6c1.4,3.3,3.8,6.1,7.2,8.3c1.4,0.9,2.9,1.2,4.5,1.1c2.1-0.2,3.9-0.6,5.5-1.4c2.2-1,3.3-2.4,3.3-4.2
			c0-0.7-0.2-1.4-0.5-2c-0.3-0.9-0.8-1.4-1.6-1.4c-0.3,0-0.6,0.1-0.9,0.2c-2.5,1.1-4.5,1.7-6.1,1.7c-1.3,0-2.6-0.3-3.9-1
			c-2.6-1.8-4.2-4.2-4.8-7.1c-0.4-2.1-0.3-4,0.3-5.7c0.4-1.1,1.4-2.7,2.9-4.6c0.5-0.5,1.2-1.3,2.1-2.4h-15.4l-3.9-4.2h49.9
			L843.9,44.4z"/>
	</g>
	<g>
		<g>
			<g>
				<defs>
					<rect id="SVGID_1_" x="3.7" y="10.5" width="183.4" height="183.6"/>
				</defs>
				<clipPath id="SVGID_00000058562744519425188120000014135040340009931651_">
					<use xlink:href="#SVGID_1_"  style="overflow:visible;"/>
				</clipPath>
				<g transform="matrix(1 0 0 1 0 0)" style="clip-path:url(#SVGID_00000058562744519425188120000014135040340009931651_);">
					
						<image style="overflow:visible;enable-background:new    ;" width="316" height="316" xlink:href="E51FD859.png"  transform="matrix(0.5803 0 0 0.5809 3.6489 10.4602)">
					</image>
				</g>
			</g>
		</g>
	</g>
	<g>
		<path class="st1" d="M212.9,171.6h-7.9c-1.1,0-2-0.5-2.4-1.4c-0.5-1-0.7-2.5-0.7-4.6V129c0-2.1,0.2-3.7,0.8-4.6
			c0.5-0.9,1.3-1.4,2.4-1.4h8.4c1.2,0,2.3,0.1,3.2,0.4c0.9,0.3,1.7,0.8,2.4,1.7c0.6,0.7,1.2,1.6,1.6,2.6c0.5,1.1,0.8,2.2,1.1,3.5
			s0.4,2.6,0.4,4c0,4.9-1.3,8.4-3.9,10.7c3.4,2,5.1,6,5.1,11.9c0,2.7-0.4,5.2-1.1,7.3c-0.7,2.2-1.7,3.8-3,4.8
			c-0.8,0.6-1.7,1.1-2.7,1.3C215.4,171.4,214.2,171.6,212.9,171.6z M207,130.3v12.6h4.8c1.3,0,2.3-0.2,3-0.7
			c0.7-0.5,1.3-1.3,1.6-2.7c0.3-0.9,0.4-2,0.4-3.1c0-2.5-0.5-4.1-1.4-4.9c-0.9-0.8-2.3-1.2-4.3-1.2H207z M212.5,150H207v14.2h5.6
			c3.5,0,5.3-2.4,5.3-7.2c0-2.5-0.5-4.2-1.4-5.3S214.3,150,212.5,150z"/>
		<path class="st1" d="M243,166l-1.2-6.1h-10.5l-1.2,6.2c-0.5,2.4-0.9,4.1-1.2,4.9c-0.3,0.9-0.9,1.3-1.7,1.3c-0.7,0-1.2-0.5-1.7-1.4
			c-0.5-0.9-0.8-1.9-0.8-3.1c0-0.7,0.1-1.3,0.2-2.1c0.1-0.7,0.3-1.7,0.6-3l6.6-31.6c0.2-0.9,0.4-2,0.7-3.3c0.3-1.3,0.5-2.3,0.8-3.2
			c0.3-0.8,0.7-1.5,1.2-2c0.5-0.5,1.1-0.8,1.8-0.8c0.7,0,1.3,0.3,1.8,0.8c0.5,0.5,0.9,1.2,1.2,2s0.6,1.7,0.8,2.6
			c0.2,0.9,0.5,2.2,0.8,3.8l6.8,31.4c0.5,2.4,0.8,4.1,0.8,5.2c0,1.1-0.3,2.2-0.8,3.1c-0.5,0.9-1.1,1.4-1.8,1.4
			c-0.4,0-0.8-0.1-1.1-0.4c-0.3-0.3-0.5-0.7-0.7-1.1s-0.4-1.2-0.6-2.2C243.4,167.7,243.2,166.8,243,166z M232.6,152.5h7.7l-3.9-20.1
			L232.6,152.5z"/>
		<path class="st1" d="M259.5,150.8h-1.8v15.6c0,2.1-0.2,3.6-0.7,4.5c-0.5,1-1.1,1.5-1.9,1.5c-0.8,0-1.5-0.5-1.9-1.5
			c-0.5-1-0.7-2.5-0.7-4.5V129c0-2.1,0.3-3.7,0.8-4.6c0.5-1,1.3-1.4,2.5-1.4h8.5c1.2,0,2.2,0.1,3,0.3c0.8,0.2,1.6,0.6,2.3,1.1
			c0.8,0.6,1.5,1.6,2.2,2.8c0.6,1.2,1.1,2.6,1.4,4.2s0.5,3.3,0.5,5c0,3.6-0.5,6.5-1.6,8.7c-1.1,2.2-2.7,3.7-5,4.6
			c0.9,0.9,1.8,2.3,2.7,4.1c0.8,1.8,1.6,3.7,2.3,5.8c0.7,2,1.2,3.9,1.6,5.5c0.4,1.6,0.6,2.8,0.6,3.4c0,0.6-0.1,1.3-0.3,1.9
			c-0.2,0.6-0.5,1.1-0.9,1.5c-0.4,0.4-0.8,0.5-1.3,0.5c-0.6,0-1.1-0.3-1.5-0.8s-0.7-1.2-1-2s-0.7-2-1.2-3.5l-2.1-6.6
			c-0.8-2.4-1.4-4.2-2-5.5c-0.6-1.3-1.2-2.1-1.8-2.6C261.2,151,260.4,150.8,259.5,150.8z M262.5,130.3h-4.8v13.4h4.7
			c1.3,0,2.3-0.2,3.2-0.6s1.5-1.1,2-2.1c0.5-1,0.7-2.3,0.7-4.1c0-1.3-0.2-2.5-0.5-3.6c-0.4-1-0.9-1.8-1.5-2.3
			C265.5,130.6,264.3,130.3,262.5,130.3z"/>
		<path class="st1" d="M278.7,166.4v-38.3c0-2,0.2-3.5,0.7-4.5c0.5-1,1.1-1.5,1.9-1.5c0.8,0,1.4,0.5,1.9,1.5c0.5,1,0.7,2.5,0.7,4.5
			v38.3c0,2-0.2,3.5-0.7,4.5c-0.5,1-1.1,1.5-1.9,1.5c-0.8,0-1.4-0.5-1.9-1.5C278.9,169.9,278.7,168.4,278.7,166.4z"/>
		<path class="st1" d="M309.5,157c0,2.9-0.4,5.6-1.2,7.9c-0.8,2.3-2,4.2-3.5,5.5c-1.6,1.3-3.4,2-5.5,2c-2.6,0-4.7-0.9-6.3-2.7
			c-1.2-1.3-2.1-3-2.9-5.2s-1.1-4.3-1.1-6.4c0-1.2,0.2-2.2,0.7-3.1c0.4-0.9,1-1.3,1.7-1.3c0.6,0,1,0.3,1.4,1c0.4,0.7,0.7,1.6,1,3
			c0.3,1.5,0.7,2.8,1.1,3.9c0.4,1,0.9,1.9,1.6,2.6c0.7,0.7,1.6,1,2.7,1c1.6,0,2.8-0.7,3.8-2c1-1.4,1.5-3.1,1.5-5.1
			c0-1.6-0.3-2.9-0.8-3.9c-0.5-1-1.2-1.8-2-2.3c-0.8-0.5-1.9-1.1-3.3-1.7c-1.9-0.8-3.4-1.8-4.7-2.9c-1.3-1.1-2.2-2.6-3-4.5
			c-0.7-1.9-1.1-4.2-1.1-7c0-2.7,0.4-5.1,1.2-7.1c0.8-2.1,1.9-3.7,3.4-4.8c1.5-1.1,3.2-1.7,5.2-1.7c1.6,0,3,0.4,4.1,1.1
			c1.2,0.7,2.1,1.7,2.9,3c0.8,1.2,1.3,2.5,1.7,3.9c0.4,1.3,0.5,2.7,0.5,3.9c0,1.2-0.2,2.2-0.7,3.2c-0.4,0.9-1,1.4-1.7,1.4
			c-0.6,0-1.1-0.3-1.4-0.8c-0.3-0.6-0.7-1.5-1-2.8c-0.5-1.8-1-3.3-1.7-4.3c-0.7-1-1.7-1.5-3.2-1.5c-1.4,0-2.4,0.6-3.3,1.7
			c-0.8,1.1-1.2,2.5-1.2,4c0,1,0.1,1.8,0.4,2.5c0.3,0.7,0.7,1.3,1.2,1.8c0.5,0.5,1,0.9,1.5,1.2c0.5,0.3,1.3,0.7,2.5,1.3
			c1.5,0.6,2.8,1.3,4,2.1c1.2,0.8,2.2,1.7,3,2.8c0.8,1.1,1.5,2.5,1.9,4.2C309.2,152.4,309.5,154.5,309.5,157z"/>
		<path class="st1" d="M319.2,128.1V142h11.3v-13.9c0-2,0.2-3.5,0.7-4.5c0.5-1,1.1-1.5,1.9-1.5c0.8,0,1.4,0.5,1.9,1.5
			c0.5,1,0.7,2.5,0.7,4.5v38.3c0,2-0.2,3.5-0.7,4.5c-0.5,1-1.1,1.5-1.9,1.5c-0.8,0-1.4-0.5-1.9-1.5s-0.7-2.5-0.7-4.5V150h-11.3v16.4
			c0,2-0.2,3.5-0.7,4.5c-0.5,1-1.1,1.5-1.9,1.5c-0.8,0-1.4-0.5-1.9-1.5c-0.5-1-0.7-2.5-0.7-4.5v-38.3c0-2,0.2-3.5,0.7-4.5
			c0.5-1,1.1-1.5,1.9-1.5c0.8,0,1.4,0.5,1.9,1.5C318.9,124.6,319.2,126.1,319.2,128.1z"/>
		<path class="st1" d="M357.9,166l-1.2-6.1h-10.5l-1.2,6.2c-0.5,2.4-0.9,4.1-1.2,4.9c-0.3,0.9-0.9,1.3-1.7,1.3
			c-0.7,0-1.2-0.5-1.7-1.4c-0.5-0.9-0.8-1.9-0.8-3.1c0-0.7,0.1-1.3,0.2-2.1c0.1-0.7,0.3-1.7,0.6-3l6.6-31.6c0.2-0.9,0.4-2,0.7-3.3
			c0.3-1.3,0.5-2.3,0.8-3.2c0.3-0.8,0.7-1.5,1.2-2c0.5-0.5,1.1-0.8,1.8-0.8c0.7,0,1.3,0.3,1.8,0.8c0.5,0.5,0.9,1.2,1.2,2
			s0.6,1.7,0.8,2.6c0.2,0.9,0.5,2.2,0.8,3.8l6.8,31.4c0.5,2.4,0.8,4.1,0.8,5.2c0,1.1-0.3,2.2-0.8,3.1c-0.5,0.9-1.1,1.4-1.8,1.4
			c-0.4,0-0.8-0.1-1.1-0.4c-0.3-0.3-0.5-0.7-0.7-1.1s-0.4-1.2-0.6-2.2C358.3,167.7,358.1,166.8,357.9,166z M347.6,152.5h7.7
			l-3.9-20.1L347.6,152.5z"/>
		<path class="st1" d="M372.5,128.1v35.4h10.6c0.8,0,1.5,0.4,2,1.2c0.5,0.8,0.7,1.7,0.7,2.9c0,1.2-0.2,2.2-0.7,2.9
			c-0.4,0.7-1.1,1.1-2,1.1h-12.7c-1.1,0-2-0.5-2.5-1.4c-0.5-1-0.8-2.5-0.8-4.6v-37.4c0-2,0.2-3.5,0.7-4.5c0.5-1,1.1-1.5,1.9-1.5
			c0.8,0,1.4,0.5,1.9,1.5C372.3,124.6,372.5,126.1,372.5,128.1z"/>
		<path class="st1" d="M415.3,130.5h-11.8v11.9h10.9c0.8,0,1.4,0.3,1.8,1s0.6,1.6,0.6,2.7s-0.2,2-0.6,2.7c-0.4,0.7-1,1-1.8,1h-10.9
			v13.8h12.2c0.8,0,1.4,0.4,1.9,1.1c0.4,0.7,0.6,1.7,0.6,2.9c0,1.2-0.2,2.1-0.6,2.8c-0.4,0.7-1,1.1-1.9,1.1h-14.3
			c-1.1,0-2-0.5-2.5-1.4c-0.5-1-0.8-2.5-0.8-4.6V129c0-1.4,0.1-2.6,0.3-3.5s0.6-1.5,1.1-2c0.5-0.4,1.1-0.6,1.8-0.6h13.8
			c0.8,0,1.5,0.3,1.9,1s0.6,1.6,0.6,2.7c0,1.1-0.2,2.1-0.6,2.8S416.2,130.5,415.3,130.5z"/>
		<path class="st1" d="M429.2,128l10.1,28.7v-28.9c0-1.9,0.2-3.3,0.6-4.2c0.4-0.9,1-1.4,1.7-1.4c0.8,0,1.3,0.5,1.8,1.4
			c0.4,0.9,0.7,2.3,0.7,4.2V166c0,4.3-0.9,6.4-2.8,6.4c-0.5,0-0.9-0.1-1.3-0.4c-0.4-0.3-0.7-0.7-1.1-1.2s-0.6-1.2-0.9-1.9
			c-0.3-0.7-0.6-1.5-0.8-2.3l-9.8-28.3v28.5c0,1.9-0.2,3.3-0.7,4.2c-0.5,1-1,1.4-1.8,1.4c-0.7,0-1.3-0.5-1.8-1.4s-0.7-2.4-0.7-4.2
			v-37.5c0-1.6,0.1-2.8,0.3-3.7c0.2-1,0.6-1.8,1.1-2.4c0.5-0.6,1.1-0.9,1.7-0.9c0.5,0,0.9,0.1,1.2,0.4c0.3,0.3,0.6,0.7,0.9,1.2
			c0.3,0.5,0.5,1.1,0.8,1.9C428.7,126.4,429,127.2,429.2,128z"/>
		<path class="st1" d="M473.5,151.8v9.3c0,1.2-0.1,2.2-0.2,3c-0.1,0.7-0.4,1.4-0.7,2s-0.8,1.2-1.3,1.7c-1.6,1.6-3.1,2.8-4.5,3.5
			s-3,1.1-4.7,1.1c-2,0-3.8-0.6-5.4-1.7c-1.6-1.1-3-2.8-4.2-5c-1.2-2.2-2-4.8-2.7-8s-0.9-6.6-0.9-10.4c0-3.8,0.3-7.2,0.9-10.4
			s1.5-5.8,2.6-8c1.2-2.2,2.6-3.9,4.3-5s3.6-1.7,5.7-1.7c1.7,0,3.3,0.4,4.6,1.3c1.3,0.9,2.4,2,3.3,3.3c0.8,1.3,1.5,2.7,1.9,4.2
			c0.4,1.5,0.6,2.8,0.6,3.9c0,1.2-0.2,2.3-0.7,3.2c-0.5,0.9-1.1,1.3-1.8,1.3c-0.4,0-0.7-0.2-1.1-0.5c-0.3-0.3-0.6-0.8-0.9-1.4
			c-0.6-1.9-1.2-3.3-1.6-4.3c-0.4-1-1.1-1.8-1.8-2.5c-0.8-0.7-1.7-1-2.9-1c-1.2,0-2.3,0.4-3.2,1.2c-1,0.8-1.8,1.9-2.4,3.4
			c-0.7,1.5-1.2,3.3-1.6,5.5s-0.5,4.6-0.5,7.2c0,5.7,0.7,10.1,2.1,13.2c1.4,3.1,3.3,4.6,5.8,4.6c1.2,0,2.4-0.3,3.4-0.9
			c1.1-0.6,2.1-1.4,3.2-2.6v-7.9h-4.1c-1,0-1.7-0.3-2.2-0.8c-0.5-0.6-0.8-1.5-0.8-2.8c0-1.1,0.2-2,0.6-2.7s1-1.1,1.7-1.1h6
			c0.7,0,1.3,0.1,1.9,0.4c0.5,0.2,0.9,0.8,1.2,1.6C473.4,148.8,473.5,150.1,473.5,151.8z"/>
		<path class="st1" d="M478.7,166.4v-38.3c0-2,0.2-3.5,0.7-4.5c0.5-1,1.1-1.5,1.9-1.5c0.8,0,1.4,0.5,1.9,1.5c0.5,1,0.7,2.5,0.7,4.5
			v38.3c0,2-0.2,3.5-0.7,4.5s-1.1,1.5-1.9,1.5c-0.8,0-1.4-0.5-1.9-1.5S478.7,168.4,478.7,166.4z"/>
		<path class="st1" d="M496.7,128l10.1,28.7v-28.9c0-1.9,0.2-3.3,0.6-4.2c0.4-0.9,1-1.4,1.7-1.4c0.8,0,1.3,0.5,1.8,1.4
			c0.4,0.9,0.7,2.3,0.7,4.2V166c0,4.3-0.9,6.4-2.8,6.4c-0.5,0-0.9-0.1-1.3-0.4c-0.4-0.3-0.7-0.7-1.1-1.2c-0.3-0.6-0.6-1.2-0.9-1.9
			c-0.3-0.7-0.6-1.5-0.8-2.3l-9.8-28.3v28.5c0,1.9-0.2,3.3-0.7,4.2c-0.5,1-1,1.4-1.8,1.4c-0.7,0-1.3-0.5-1.8-1.4s-0.7-2.4-0.7-4.2
			v-37.5c0-1.6,0.1-2.8,0.3-3.7c0.2-1,0.6-1.8,1.1-2.4c0.5-0.6,1.1-0.9,1.7-0.9c0.5,0,0.9,0.1,1.2,0.4c0.3,0.3,0.6,0.7,0.9,1.2
			c0.3,0.5,0.5,1.1,0.8,1.9C496.1,126.4,496.4,127.2,496.7,128z"/>
		<path class="st1" d="M534.4,130.5h-11.8v11.9h10.9c0.8,0,1.4,0.3,1.8,1s0.6,1.6,0.6,2.7s-0.2,2-0.6,2.7c-0.4,0.7-1,1-1.8,1h-10.9
			v13.8h12.2c0.8,0,1.4,0.4,1.9,1.1c0.4,0.7,0.6,1.7,0.6,2.9c0,1.2-0.2,2.1-0.6,2.8c-0.4,0.7-1,1.1-1.9,1.1h-14.3
			c-1.1,0-2-0.5-2.5-1.4c-0.5-1-0.8-2.5-0.8-4.6V129c0-1.4,0.1-2.6,0.3-3.5s0.6-1.5,1.1-2c0.5-0.4,1.1-0.6,1.8-0.6h13.8
			c0.8,0,1.5,0.3,1.9,1s0.6,1.6,0.6,2.7c0,1.1-0.2,2.1-0.6,2.8S535.2,130.5,534.4,130.5z"/>
		<path class="st1" d="M558.5,130.5h-11.8v11.9h10.9c0.8,0,1.4,0.3,1.8,1s0.6,1.6,0.6,2.7s-0.2,2-0.6,2.7c-0.4,0.7-1,1-1.8,1h-10.9
			v13.8h12.2c0.8,0,1.4,0.4,1.9,1.1c0.4,0.7,0.6,1.7,0.6,2.9c0,1.2-0.2,2.1-0.6,2.8c-0.4,0.7-1,1.1-1.9,1.1h-14.3
			c-1.1,0-2-0.5-2.5-1.4c-0.5-1-0.8-2.5-0.8-4.6V129c0-1.4,0.1-2.6,0.3-3.5s0.6-1.5,1.1-2c0.5-0.4,1.1-0.6,1.8-0.6h13.8
			c0.8,0,1.5,0.3,1.9,1s0.6,1.6,0.6,2.7c0,1.1-0.2,2.1-0.6,2.8S559.4,130.5,558.5,130.5z"/>
		<path class="st1" d="M572.6,150.8h-1.8v15.6c0,2.1-0.2,3.6-0.7,4.5c-0.5,1-1.1,1.5-1.9,1.5c-0.8,0-1.5-0.5-1.9-1.5
			c-0.5-1-0.7-2.5-0.7-4.5V129c0-2.1,0.3-3.7,0.8-4.6c0.5-1,1.3-1.4,2.5-1.4h8.5c1.2,0,2.2,0.1,3,0.3s1.6,0.6,2.3,1.1
			c0.8,0.6,1.5,1.6,2.2,2.8c0.6,1.2,1.1,2.6,1.4,4.2c0.3,1.6,0.5,3.3,0.5,5c0,3.6-0.5,6.5-1.6,8.7s-2.7,3.7-5,4.6
			c0.9,0.9,1.8,2.3,2.7,4.1c0.8,1.8,1.6,3.7,2.3,5.8c0.7,2,1.2,3.9,1.6,5.5c0.4,1.6,0.6,2.8,0.6,3.4c0,0.6-0.1,1.3-0.3,1.9
			c-0.2,0.6-0.5,1.1-0.9,1.5c-0.4,0.4-0.8,0.5-1.3,0.5c-0.6,0-1.1-0.3-1.5-0.8s-0.7-1.2-1-2s-0.7-2-1.2-3.5l-2.1-6.6
			c-0.8-2.4-1.4-4.2-2-5.5s-1.2-2.1-1.8-2.6C574.3,151,573.6,150.8,572.6,150.8z M575.6,130.3h-4.8v13.4h4.7c1.3,0,2.3-0.2,3.2-0.6
			s1.5-1.1,2-2.1c0.5-1,0.7-2.3,0.7-4.1c0-1.3-0.2-2.5-0.5-3.6c-0.4-1-0.9-1.8-1.5-2.3C578.6,130.6,577.4,130.3,575.6,130.3z"/>
		<path class="st1" d="M591.8,166.4v-38.3c0-2,0.2-3.5,0.7-4.5c0.5-1,1.1-1.5,1.9-1.5c0.8,0,1.4,0.5,1.9,1.5c0.5,1,0.7,2.5,0.7,4.5
			v38.3c0,2-0.2,3.5-0.7,4.5s-1.1,1.5-1.9,1.5c-0.8,0-1.4-0.5-1.9-1.5S591.8,168.4,591.8,166.4z"/>
		<path class="st1" d="M609.8,128l10.1,28.7v-28.9c0-1.9,0.2-3.3,0.6-4.2c0.4-0.9,1-1.4,1.7-1.4c0.8,0,1.3,0.5,1.8,1.4
			c0.4,0.9,0.7,2.3,0.7,4.2V166c0,4.3-0.9,6.4-2.8,6.4c-0.5,0-0.9-0.1-1.3-0.4c-0.4-0.3-0.7-0.7-1.1-1.2c-0.3-0.6-0.6-1.2-0.9-1.9
			c-0.3-0.7-0.6-1.5-0.8-2.3l-9.8-28.3v28.5c0,1.9-0.2,3.3-0.7,4.2c-0.5,1-1,1.4-1.8,1.4c-0.7,0-1.3-0.5-1.8-1.4s-0.7-2.4-0.7-4.2
			v-37.5c0-1.6,0.1-2.8,0.3-3.7c0.2-1,0.6-1.8,1.1-2.4c0.5-0.6,1.1-0.9,1.7-0.9c0.5,0,0.9,0.1,1.2,0.4c0.3,0.3,0.6,0.7,0.9,1.2
			c0.3,0.5,0.5,1.1,0.8,1.9C609.2,126.4,609.5,127.2,609.8,128z"/>
		<path class="st1" d="M654,151.8v9.3c0,1.2-0.1,2.2-0.2,3c-0.1,0.7-0.4,1.4-0.7,2s-0.8,1.2-1.3,1.7c-1.6,1.6-3.1,2.8-4.5,3.5
			s-3,1.1-4.7,1.1c-2,0-3.8-0.6-5.4-1.7c-1.6-1.1-3-2.8-4.2-5c-1.2-2.2-2-4.8-2.7-8s-0.9-6.6-0.9-10.4c0-3.8,0.3-7.2,0.9-10.4
			s1.5-5.8,2.6-8c1.2-2.2,2.6-3.9,4.3-5s3.6-1.7,5.7-1.7c1.7,0,3.3,0.4,4.6,1.3c1.3,0.9,2.4,2,3.3,3.3c0.8,1.3,1.5,2.7,1.9,4.2
			c0.4,1.5,0.6,2.8,0.6,3.9c0,1.2-0.2,2.3-0.7,3.2c-0.5,0.9-1.1,1.3-1.8,1.3c-0.4,0-0.7-0.2-1.1-0.5c-0.3-0.3-0.6-0.8-0.9-1.4
			c-0.6-1.9-1.2-3.3-1.6-4.3c-0.4-1-1.1-1.8-1.8-2.5c-0.8-0.7-1.7-1-2.9-1c-1.2,0-2.3,0.4-3.2,1.2c-1,0.8-1.8,1.9-2.4,3.4
			c-0.7,1.5-1.2,3.3-1.6,5.5s-0.5,4.6-0.5,7.2c0,5.7,0.7,10.1,2.1,13.2c1.4,3.1,3.3,4.6,5.8,4.6c1.2,0,2.4-0.3,3.4-0.9
			c1.1-0.6,2.1-1.4,3.2-2.6v-7.9h-4.1c-1,0-1.7-0.3-2.2-0.8c-0.5-0.6-0.8-1.5-0.8-2.8c0-1.1,0.2-2,0.6-2.7s1-1.1,1.7-1.1h6
			c0.7,0,1.3,0.1,1.9,0.4c0.5,0.2,0.9,0.8,1.2,1.6C653.9,148.8,654,150.1,654,151.8z"/>
		<path class="st1" d="M690.1,156.2c0,1.5-0.2,3.2-0.6,5c-0.4,1.8-1,3.6-1.9,5.3c-0.9,1.7-2,3.1-3.3,4.2c-1.4,1.1-2.9,1.6-4.7,1.6
			c-1.4,0-2.6-0.2-3.7-0.7c-1.1-0.5-2.1-1.2-3-2.3c-0.9-1-1.8-2.4-2.5-4.1c-0.7-1.5-1.3-3.2-1.7-5.1c-0.5-1.9-0.8-3.9-1.1-6.1
			s-0.4-4.4-0.4-6.8c0-3.9,0.3-7.4,0.9-10.5s1.5-5.7,2.6-7.9c1.1-2.2,2.5-3.9,4-5c1.5-1.1,3.1-1.7,4.9-1.7c2.1,0,4,0.8,5.6,2.4
			c1.6,1.6,2.9,3.5,3.8,5.8s1.3,4.5,1.3,6.6c0,1.1-0.2,2.1-0.6,3c-0.4,0.9-0.9,1.3-1.5,1.3c-0.7,0-1.2-0.3-1.5-0.9s-0.7-1.6-1.1-3.1
			c-0.7-2.4-1.5-4.2-2.4-5.4c-0.9-1.2-2.1-1.8-3.4-1.8c-2.2,0-3.9,1.5-5.1,4.6c-1.3,3.1-1.9,7.4-1.9,13.1c0,3.8,0.3,6.9,0.8,9.4
			s1.4,4.4,2.4,5.6c1,1.2,2.2,1.9,3.6,1.9c1.5,0,2.8-0.7,3.8-2.1s1.8-3.5,2.4-6.2c0.2-1.3,0.5-2.3,0.8-3.1c0.3-0.8,0.9-1.2,1.6-1.2
			c0.6,0,1.2,0.4,1.6,1.2C689.9,154,690.1,155,690.1,156.2z"/>
		<path class="st1" d="M706.2,122.1c2.7,0,5,1,6.9,3.1c1.9,2,3.4,5,4.4,8.7c1,3.8,1.5,8.2,1.5,13.3c0,3.8-0.3,7.2-0.8,10.2
			c-0.5,3.1-1.4,5.7-2.4,8c-1.1,2.3-2.4,4-4,5.2c-1.6,1.2-3.4,1.8-5.4,1.8c-2,0-3.8-0.6-5.4-1.8c-1.6-1.2-2.9-3-4-5.2
			s-1.9-4.9-2.4-8.1c-0.5-3.1-0.8-6.5-0.8-10.2c0-3.7,0.3-7.2,0.9-10.3c0.6-3.1,1.4-5.8,2.5-8c1.1-2.2,2.4-3.9,4-5
			C702.5,122.7,704.3,122.1,706.2,122.1z M713.7,147.1c0-3.6-0.3-6.6-0.9-9.3s-1.5-4.6-2.6-5.9c-1.1-1.3-2.4-2-3.9-2
			c-1,0-2,0.4-2.9,1.1c-0.9,0.7-1.7,1.8-2.3,3.2s-1.1,3.2-1.5,5.4s-0.6,4.7-0.6,7.4c0,2.8,0.2,5.3,0.6,7.5c0.4,2.2,0.9,4.1,1.6,5.6
			c0.7,1.5,1.5,2.6,2.3,3.3s1.8,1.1,2.9,1.1c1.3,0,2.6-0.6,3.7-1.9c1.1-1.3,2-3.2,2.7-5.8C713.4,154.2,713.7,151,713.7,147.1z"/>
		<path class="st1" d="M728.6,128.1v35.4h10.6c0.8,0,1.5,0.4,2,1.2c0.5,0.8,0.7,1.7,0.7,2.9c0,1.2-0.2,2.2-0.7,2.9
			c-0.4,0.7-1.1,1.1-2,1.1h-12.7c-1.1,0-2-0.5-2.5-1.4c-0.5-1-0.8-2.5-0.8-4.6v-37.4c0-2,0.2-3.5,0.7-4.5c0.5-1,1.1-1.5,1.9-1.5
			c0.8,0,1.4,0.5,1.9,1.5C728.4,124.6,728.6,126.1,728.6,128.1z"/>
		<path class="st1" d="M750.5,128.1v35.4h10.6c0.8,0,1.5,0.4,2,1.2c0.5,0.8,0.7,1.7,0.7,2.9c0,1.2-0.2,2.2-0.7,2.9
			c-0.4,0.7-1.1,1.1-2,1.1h-12.7c-1.1,0-2-0.5-2.5-1.4c-0.5-1-0.8-2.5-0.8-4.6v-37.4c0-2,0.2-3.5,0.7-4.5c0.5-1,1.1-1.5,1.9-1.5
			c0.8,0,1.4,0.5,1.9,1.5C750.2,124.6,750.5,126.1,750.5,128.1z"/>
		<path class="st1" d="M784.3,130.5h-11.8v11.9h10.9c0.8,0,1.4,0.3,1.8,1s0.6,1.6,0.6,2.7s-0.2,2-0.6,2.7c-0.4,0.7-1,1-1.8,1h-10.9
			v13.8h12.2c0.8,0,1.4,0.4,1.9,1.1c0.4,0.7,0.6,1.7,0.6,2.9c0,1.2-0.2,2.1-0.6,2.8c-0.4,0.7-1,1.1-1.9,1.1h-14.3
			c-1.1,0-2-0.5-2.5-1.4c-0.5-1-0.8-2.5-0.8-4.6V129c0-1.4,0.1-2.6,0.3-3.5s0.6-1.5,1.1-2c0.5-0.4,1.1-0.6,1.8-0.6h13.8
			c0.8,0,1.5,0.3,1.9,1s0.6,1.6,0.6,2.7c0,1.1-0.2,2.1-0.6,2.8S785.1,130.5,784.3,130.5z"/>
		<path class="st1" d="M815,151.8v9.3c0,1.2-0.1,2.2-0.2,3c-0.1,0.7-0.4,1.4-0.7,2s-0.8,1.2-1.3,1.7c-1.6,1.6-3.1,2.8-4.5,3.5
			s-3,1.1-4.7,1.1c-2,0-3.8-0.6-5.4-1.7c-1.6-1.1-3-2.8-4.2-5c-1.2-2.2-2-4.8-2.7-8s-0.9-6.6-0.9-10.4c0-3.8,0.3-7.2,0.9-10.4
			s1.5-5.8,2.6-8c1.2-2.2,2.6-3.9,4.3-5s3.6-1.7,5.7-1.7c1.7,0,3.3,0.4,4.6,1.3c1.3,0.9,2.4,2,3.3,3.3c0.8,1.3,1.5,2.7,1.9,4.2
			c0.4,1.5,0.6,2.8,0.6,3.9c0,1.2-0.2,2.3-0.7,3.2c-0.5,0.9-1.1,1.3-1.8,1.3c-0.4,0-0.7-0.2-1.1-0.5c-0.3-0.3-0.6-0.8-0.9-1.4
			c-0.6-1.9-1.2-3.3-1.6-4.3c-0.4-1-1.1-1.8-1.8-2.5c-0.8-0.7-1.7-1-2.9-1c-1.2,0-2.3,0.4-3.2,1.2c-1,0.8-1.8,1.9-2.4,3.4
			c-0.7,1.5-1.2,3.3-1.6,5.5s-0.5,4.6-0.5,7.2c0,5.7,0.7,10.1,2.1,13.2c1.4,3.1,3.3,4.6,5.8,4.6c1.2,0,2.4-0.3,3.4-0.9
			c1.1-0.6,2.1-1.4,3.2-2.6v-7.9h-4.1c-1,0-1.7-0.3-2.2-0.8c-0.5-0.6-0.8-1.5-0.8-2.8c0-1.1,0.2-2,0.6-2.7s1-1.1,1.7-1.1h6
			c0.7,0,1.3,0.1,1.9,0.4c0.5,0.2,0.9,0.8,1.2,1.6C814.8,148.8,815,150.1,815,151.8z"/>
		<path class="st1" d="M837,130.5h-11.8v11.9h10.9c0.8,0,1.4,0.3,1.8,1s0.6,1.6,0.6,2.7s-0.2,2-0.6,2.7c-0.4,0.7-1,1-1.8,1h-10.9
			v13.8h12.2c0.8,0,1.4,0.4,1.9,1.1c0.4,0.7,0.6,1.7,0.6,2.9c0,1.2-0.2,2.1-0.6,2.8c-0.4,0.7-1,1.1-1.9,1.1h-14.3
			c-1.1,0-2-0.5-2.5-1.4c-0.5-1-0.8-2.5-0.8-4.6V129c0-1.4,0.1-2.6,0.3-3.5s0.6-1.5,1.1-2c0.5-0.4,1.1-0.6,1.8-0.6H837
			c0.8,0,1.5,0.3,1.9,1s0.6,1.6,0.6,2.7c0,1.1-0.2,2.1-0.6,2.8S837.9,130.5,837,130.5z"/>
	</g>
</g>
</svg>
