<?xml version="1.0" encoding="utf-8"?>
<!-- Generator: Adobe Illustrator 26.0.1, SVG Export Plug-In . SVG Version: 6.00 Build 0)  -->
<svg version="1.1" id="Layer_1" xmlns="http://www.w3.org/2000/svg" xmlns:xlink="http://www.w3.org/1999/xlink" x="0px" y="0px"
	 viewBox="0 0 847 204.5" style="enable-background:new 0 0 847 204.5;" xml:space="preserve">
<style type="text/css">
	.st0{fill:#761315;}
</style>
<g>
	<g>
		<path d="M238.6,48H229v42.2l-2-3.1c-2.3-5.9-5.7-10.3-10.2-13c-3.2-2-6.5-3.1-9.8-3.3l-5-7.4c3.8-2.8,7-5,9.6-6.4
			c5.1-2.7,9.6-4.8,13.6-6.1V48h-25.1l-3.8-4.2h38.4L238.6,48z M225.2,78.7V57.3c-4.6,1.7-9.6,4.4-15,8.2
			C216.9,68.5,221.9,72.9,225.2,78.7z"/>
		<path d="M275.1,39.4l-6.6-5.2c-4-3.2-8.5-4.7-13.6-4.7c-2.9,0-5.3,0.7-7.4,2.2l-1.9,1.3c-0.5,0.5-1.1,1.2-1.8,2.2
			c-2,2.7-2.9,4.4-2.6,5.2l1.5,3.5h7.2l3.9,4.2H244v41.3l-4-4V48h-5.7l-3.9-4.2h10l-3.4-3.8c-0.4-0.4-0.5-1.1-0.5-1.9
			c0.1-1.5,0.3-2.6,0.8-3.4c1.3-2.2,2.2-3.7,2.9-4.3c1.4-1.6,3.5-3,6.1-4.3c1.4-0.7,3.1-1.1,5.1-1.1c5,0,10.3,1.9,16,5.6
			c1.8,1.1,4.1,3.2,6.9,6.3L275.1,39.4z"/>
		<path d="M286.4,48h-9.1v41.3l-1.5-1.5l-3.5-6.8c-1.6-3-4-5.6-7.1-7.5c-3.1-2-6.4-3.1-9.8-3.3l-5.1-7.3c7.7-5.8,15.4-9.9,23-12.3
			V48h-23.7l-3.9-4.2h36.7L286.4,48z M262.6,86c-0.9,0-1.8-0.3-2.6-1c-0.8-0.7-1.3-1.5-1.5-2.5c-0.3-1.2,0-2.3,0.7-3.3
			c0.8-1,1.7-1.6,2.9-1.6c0.9,0,1.8,0.3,2.6,1c0.8,0.7,1.3,1.4,1.5,2.4c0.3,1.2,0,2.3-0.7,3.4C264.7,85.5,263.7,86,262.6,86z
			 M273.3,79.3V56.7c-3,1.1-5.9,2.4-8.6,3.8c-1.3,0.8-3.5,2.3-6.4,4.5C265.4,68.1,270.4,72.9,273.3,79.3z"/>
		<path d="M326.7,48.1h-8.9v41.7l-4-4.2l0.2-25.5c0-1.2-0.8-3-2.4-5.5c-1.9-2.9-3.6-4.2-5.1-4.1c-0.9,0.1-1.8,0.5-2.6,1.1
			s-1.3,1.3-1.3,2.2c1.8,1.4,3,2.4,3.4,2.9c1.6,1.7,2.4,3.4,2.4,5.1c0,0.5-0.2,1.5-0.5,2.9c-0.6,1.7-2.1,2.6-4.5,2.6
			c-2.3,0-4.2-1.5-5.8-4.4c-0.9,2.2-2.5,3.8-4.9,4.6c-0.5,0.2-0.9,0.2-1.3,0.2c-2.2,0-3.7-1.4-4.5-4.2c-0.2-0.5-0.2-1.1-0.2-1.7
			c0-2,1.1-4.1,3.2-6.2c0.3-0.3,0.9-0.8,2-1.7c0.5-0.4,1-0.7,1.5-0.7c-0.3-0.8-1-1.9-2.2-3.4c-1.2-1-2.3-1.5-3.4-1.5H283l-3.9-4.2h8
			c1.8,0,3.4,0.5,4.7,1.5l1.9,1.9c1.1,1.1,1.9,2.5,2.2,4.2c0.7-1.6,1.4-2.8,2.1-3.7c1.5-1.6,3.3-2.8,5.7-3.5
			c0.9-0.3,1.5-0.4,1.7-0.4c1,0,2.6,1.3,4.7,4c0.6,0.8,1.6,2.4,3,4.8c1.5,2.6,2.4,4.2,2.6,4.8l-1.1-13.2l-0.4-7.7
			c0.7,0.7,1.5,1.5,2.4,2.5c0.3,0.4,0.5,0.9,0.5,1.6c0,0.9,0.1,1.4,0.2,1.5c0.4,0.9,1.2,1.5,2.3,1.8h3.3L326.7,48.1z"/>
		<path d="M342.8,48h-9.7v42.8l-3.7-4.2V56.1c0-1.8-0.4-3.2-1.1-4.3c-1.7-2.5-3.7-3.7-6.2-3.7c-0.3,0-0.6,0-1,0l-4-4.2
			c2.3-0.3,4.4-0.3,6.1,0c2.7,0.4,4.7,2.3,5.9,5.5c0.4,0.9,1,2.5,1.8,5c-0.6-3-1-6.8-1.3-11.3c-0.1-1.9-0.2-4.1-0.2-6.6l1.5,1.3
			c0.2,1.6,0.5,3.1,1,4.4c0.2,0.4,0.6,1,1.2,1.6h5.8L342.8,48z"/>
		<path d="M382.7,47.9H373v41.9l-4-4V63.2c0-1.4-0.6-2.7-1.8-3.8c-1.2-1.2-2.4-1.7-3.7-1.5c-0.9,0.1-1.6,0.7-2.1,1.6
			s-0.6,1.9-0.5,2.9l0.3,2.1l-1.6,0.7c0.1-0.3-0.2-0.9-0.8-2c-1-1.7-1.8-2.8-2.2-3.1c-1.4-1.5-3.2-2.2-5.5-2.2
			c-1.9,0-3.5,0.7-4.9,2.1c-1.4,1.4-2.1,3.1-2.1,5c0,3.3,1.7,5.2,5.1,5.8c-0.8-1-1.2-2.1-1.2-3.2c0-1.3,0.4-2.4,1.3-3.2
			s1.9-1.2,3.1-1.2c1.9,0,3.2,1.1,4.1,3.5c0.7,2,0.9,3.3,0.6,4.1c-1,2.6-3,3.9-5.8,3.9c-2.6,0-4.9-0.7-6.9-2.2s-3.2-3.5-3.7-6.2
			c-0.2-1-0.3-2.1-0.3-3.2c0-2.8,0.7-5.3,2.2-7.5c1.6-2.5,3.7-3.7,6.2-3.8c2.7,0,5.1,1,7.2,3.2l1.4,1.9c0-0.9,0.6-2,1.7-3.1
			s2.1-1.7,3-1.7c1.5,0.1,2.7,0.6,3.6,1.5c0.4,0.6,0.9,1.2,1.3,1.8c0.7,0.8,1.4,2,1.9,3.8V47.9H339l-4-4.2h43.6L382.7,47.9z"/>
		<path d="M440,48h-23.1c0.2,0.6,0.5,1.3,1,2.2c0.5,0.5,1.9,1.2,4.4,2c2.1,0.7,3.8,2.3,5.3,4.7c1.6,2.7,2.3,5.2,2,7.7
			c-0.5,4.6-3,7.9-7.6,9.7c-2.1,0.8-3.3,1.4-3.6,1.7c0,0.2,1.2,1,3.6,2.6c3,2,5.4,3.8,7.1,5.5l5.9,5.8l1.2,5.5
			c-7.7-9.2-17.5-15.2-29.6-18.3l-4.7-10.2c3.3,2.2,7,3.3,11.1,3.3c2.5,0,5.1-0.7,7.6-2c1.4-0.7,2.5-1.8,3.6-3.4
			c0.6-0.9,0.8-2.3,0.4-4.2c-0.3-1.3-0.9-2.4-1.9-3.2c-1-0.8-2.1-1.3-3.3-1.3c-0.6,0-1.1,0.1-1.7,0.3c0,2-1.1,3.9-3.2,5.9
			c-1.1,1-2.5,1.5-4.1,1.5c-2.5,0-4-1.1-4.5-3.2c-0.3-1.2,0-2.5,0.7-4s1.7-2.5,2.8-3c0.2-0.2,1.9-1,5.1-2.5c0,0,0-0.1,0-0.2
			c-0.1-0.6-0.9-1.5-2.4-2.8h-12l-3.9-4.2h25.5c1.7-0.2,2.6-0.3,2.7-0.4c0.7-0.2,1.5-0.8,2.2-1.7c0.2-0.3,0.3-0.5,0.3-0.8
			c0-1-0.9-1.7-2.6-2.2c-1.4-0.4-2.7-0.5-3.8-0.4c-1.9,0-4.5,0.1-7.7,0.4c-1.3,0.1-2.2,0.2-2.7,0.2c-3,0-5.6-0.7-7.9-2.2
			c-2.7-1.7-4-4-4-6.9c0-1.4,0.4-2.7,1.2-3.8c0.1-0.3,0.6-0.4,1.5-0.4c0.8,0,1.3,0,1.4,0.1c-1.3,0.8-1.9,1.9-1.9,3.1
			c0,1.6,0.8,2.8,2.4,3.6c1.1,0.6,2,0.9,2.5,0.9c0.7,0.2,2.4,0.1,4.9-0.2c2.6-0.3,4.3-0.5,5.1-0.5c1,0,2.1,0,3.5,0.1
			c2.7,0.1,4.8,0.6,6.3,1.6c3.5,2.3,5.1,5.5,4.8,9.6h6.3L440,48z"/>
		<path d="M476.8,39.4l-6.6-5.2c-4-3.2-8.5-4.7-13.6-4.7c-2.9,0-5.3,0.7-7.5,2.2l-1.9,1.3c-0.5,0.5-1.1,1.2-1.8,2.2
			c-2,2.7-2.9,4.4-2.6,5.2l1.5,3.5h7.2l3.9,4.2h-9.8v41.3l-4-4V48H436l-3.9-4.2h10l-3.4-3.8c-0.4-0.4-0.5-1.1-0.5-1.9
			c0-1.5,0.3-2.6,0.8-3.4c1.3-2.2,2.2-3.7,2.9-4.3c1.5-1.6,3.5-3,6.1-4.3c1.4-0.7,3.1-1.1,5-1.1c5,0,10.3,1.9,16,5.6
			c1.8,1.1,4.1,3.2,6.9,6.3L476.8,39.4z"/>
		<path d="M470.3,51.5c-0.2-2-0.8-2.9-1.9-2.9c-0.8,0-1.3,0-1.5,0.2c-0.5,0.2-1.3,0.8-2.3,1.9c-0.2,0.2-0.3,0.4-0.3,0.5
			c0.2,0.2,0.3,0.5,0.5,0.9c0.5,0.9,0.7,1.8,0.7,2.7c0,1.1-0.5,2.1-1.4,3.1s-1.9,1.4-3,1.4c-3-0.2-4.5-1.9-4.5-5c0-2.6,1-4.9,3-7
			c2-2.1,4.2-3.1,6.6-3.1c2.1,0,4,0.9,5.8,2.7c0.4,0.4,1,1.1,1.7,2.1c0.4,0.6,0.7,0.8,0.9,0.7c1.1-1.2,2.7-2.5,4.6-3.8
			c1.4-0.5,2.5-0.7,3.5-0.7c0.5,0,0.9,0,1.3,0.2c4.5,0,7.1,2,7.9,5.9c0.2,1.1,0,2.2-0.5,3.3c-0.1,0.2-0.8,1.1-2,2.7
			c1.7,2.1,2.5,3.7,2.5,4.7c-0.2,2.7-1,4.6-2.4,5.7l3.3,3.3c-1.4,0.9-2.6,2.1-3.6,3.5c-2.1,2.8-3.2,5-3.3,6.4
			c-0.2,1.5,0,2.9,0.5,4.3c0.2,0.5,0.8,1.8,1.9,3.8l-2,2c-2.3-4.1-3.5-7.3-3.8-9.5c-0.1-0.9-0.2-1.8-0.2-2.8c0-1.1,0.1-2.3,0.3-3.4
			c0.8-1.8,1.6-3.9,2.3-6c0-0.1,0-0.1-0.1-0.1c-1.9,0.2-3.6-0.2-5.1-1.3c-0.2-0.1-1.4-1.2-3.8-3.3c-1.5-1.3-2.6-3.3-3.3-6
			c-0.1-0.1-0.2-0.2-0.4-0.2c-1.2,0-2.4,1.1-3.7,3.4c-1.2,2.1-1.8,3.8-1.8,5.2c0,2,0.8,3,2.6,3c0.6,0,1.5-0.5,2.7-1.4
			c0.3-0.2,0.8-0.8,1.4-1.7c0.4-0.6,1-0.9,1.7-0.9c0.3,0,0.5,0.1,0.7,0.2c0.3-0.1,1.1,0.7,2.3,2.3c2.4,3.2,3.6,6.1,3.6,8.9
			c0,2.2-0.7,4.2-2.2,5.8c-1.5,1.6-3.3,2.7-5.4,3.4c-0.9,0.3-1.8,0.4-2.6,0.4c-4.4,0-8.1-2.3-11.2-6.9c-2.7-4.1-4.1-8.6-4.4-13.5
			c0-1.3-0.1-4.1-0.1-8.3c1.2,0.7,2,1.1,2.2,1.3c-0.3,4.5,0.5,9,2.4,13.7c0.7,1.8,1.8,3.5,3.3,5c2.3,2.3,4.4,3.5,6.2,3.3
			c2.3-0.1,4.4-0.8,6.3-2c1.7-1,2.5-2.3,2.5-3.7c0-0.7-0.2-1.4-0.5-2c-0.3-0.9-0.8-1.4-1.5-1.4c-0.3,0-0.6,0.1-0.9,0.2
			c-2.1,1-4,1.6-5.5,1.6c-2.2,0-4.1-0.8-5.5-2.2c-1.5-1.5-2.2-3.4-2.2-5.7c0-3.5,2-7.4,5.9-11.6C469.7,53.4,470.4,52.2,470.3,51.5z
			 M488,61c-0.4,0-1.1,0.1-1.9,0.4c-0.9,0.2-1.5,0.4-1.9,0.4c-1.5,0-2.7-0.6-3.7-1.9c-0.5-0.6-0.7-1.6-0.7-2.9
			c0-1.8,0.9-3.2,2.6-3.9c0.5-0.2,1-0.3,1.5-0.3c0.8,0,1.8,0.4,3,1.3c0.9-0.3,1.3-1.1,1.3-2.3c0-0.4,0-0.8-0.1-1.2
			c-0.3-1.4-1.2-2.1-2.7-2.1c-1.7,0-3.4,0.5-5,1.6c-3.5,2.3-5.2,4.2-5.2,5.7c0,0.2,0,0.4,0.2,0.6c0.5,1.7,0.8,2.8,0.9,3.2
			c1,2.9,3.1,4.8,6.3,5.6c0.6,0.2,1.1,0.2,1.5,0.2c1.7,0,3-0.8,4-2.5c0.3-0.5,0.4-0.9,0.3-1.3C488.2,61.3,488.1,61.2,488,61z"/>
		<path d="M534.6,39.4l-6.6-5.2c-4-3.2-8.5-4.7-13.6-4.7c-2.8,0-5.3,0.7-7.5,2.2l-1.9,1.3c-0.5,0.5-1.1,1.2-1.8,2.2
			c-2,2.7-2.9,4.4-2.6,5.2l1.5,3.5h7.2l3.9,4.2h-9.8v41.3l-4-4V48h-5.7l-3.9-4.2h10l-3.4-3.8c-0.4-0.4-0.5-1.1-0.5-1.9
			c0-1.5,0.3-2.6,0.8-3.4c1.3-2.2,2.2-3.7,2.9-4.3c1.5-1.6,3.5-3,6.1-4.3c1.4-0.7,3.1-1.1,5-1.1c5,0,10.3,1.9,16,5.6
			c1.8,1.1,4.1,3.2,6.9,6.3L534.6,39.4z"/>
		<path d="M548.3,48h-9.9v42.6l-1.5-2c0.3-1.7-0.1-4.7-1.2-8.7c-1.8-7-4.2-11.9-7.3-14.8c-2.2-2.1-4.4-3.1-6.6-2.9
			c-0.4,0-0.6,0.1-0.6,0.2l1.2,1.9c0.5,0.8,0.9,1.7,1.1,2.6c0.4,2,0.1,3.6-0.8,4.9c-1,1.2-2.4,1.8-4.3,1.8c-4.2,0-6.6-2-7.2-5.9
			c-0.1-0.7-0.2-1.3-0.2-1.9c0-2.7,0.9-4.9,2.7-6.6c1.8-1.7,4-2.6,6.6-2.6c4.6,0,8.7,3.1,12.1,9.4c1.3,2.4,1.9,3.7,1.9,3.8V48h-26.4
			l-3.9-4.2h40.1L548.3,48z"/>
		<path d="M582.8,48h-10.1v42.1l-1.6-1.9l-1.7-3.8c-1-2.1-2.5-4.3-4.7-6.4s-4.2-3.6-6.2-4.4c-1.5-0.6-3.8-1-6.8-1.1l-5.2-6.9
			c2.7-2.8,5.1-5.2,7.2-6.9c0.4-0.3,1.8-1.5,4.3-3.5c-0.8-0.9-1.4-1.4-1.6-1.5c-1.4-0.9-3.3-1.4-5.8-1.7c-3.1-0.3-5.4-1.5-6.8-3.6
			l-4.1-4.3h39.1L582.8,48z M557.3,87.2c-1,0-1.9-0.3-2.7-1c-0.8-0.7-1.3-1.5-1.6-2.5c-0.3-1.3,0-2.5,0.7-3.6
			c0.8-1.1,1.8-1.6,3.1-1.6c1,0,1.9,0.3,2.7,1s1.3,1.5,1.5,2.4c0.3,1.2,0,2.4-0.8,3.6C559.6,86.7,558.6,87.2,557.3,87.2z
			 M568.7,79.4V48h-14.1c1.2,0.9,2.6,1.9,4,3.2c0.4,0.4,2.2,2.5,5.4,6.3c-1,1.1-2.3,2.5-4,4c-1,0.9-2.7,2.8-5.2,5.9
			c1.6,0.5,2.9,1.1,3.9,1.7C562.9,71.5,566.2,74.9,568.7,79.4z"/>
		<path d="M598.2,48h-9.7v42.8l-3.7-4.2V56.1c0-1.8-0.4-3.2-1.1-4.3c-1.7-2.5-3.7-3.7-6.2-3.7c-0.3,0-0.7,0-1,0l-4-4.2
			c2.3-0.3,4.4-0.3,6.1,0c2.7,0.4,4.7,2.3,5.9,5.5c0.4,0.9,1,2.5,1.8,5c-0.6-3-1-6.8-1.3-11.3c-0.1-1.9-0.2-4.1-0.2-6.6l1.5,1.3
			c0.2,1.6,0.5,3.1,1,4.4c0.2,0.4,0.7,1,1.2,1.6h5.8L598.2,48z"/>
		<path d="M634.7,39.4l-6.6-5.2c-4-3.2-8.5-4.7-13.6-4.7c-2.8,0-5.3,0.7-7.5,2.2l-1.9,1.3c-0.5,0.5-1.1,1.2-1.8,2.2
			c-2,2.7-2.8,4.4-2.6,5.2l1.5,3.5h7.2l3.9,4.2h-9.8v41.3l-4-4V48h-5.7l-3.8-4.2h10l-3.4-3.8c-0.4-0.4-0.5-1.1-0.5-1.9
			c0-1.5,0.3-2.6,0.8-3.4c1.3-2.2,2.2-3.7,2.9-4.3c1.4-1.6,3.5-3,6.1-4.3c1.4-0.7,3.1-1.1,5-1.1c5,0,10.3,1.9,16,5.6
			c1.8,1.1,4.1,3.2,6.9,6.3L634.7,39.4z"/>
		<path d="M646,48h-9.1v41.3l-1.5-1.5l-3.5-6.8c-1.6-3-4-5.6-7.1-7.5c-3.1-2-6.4-3.1-9.8-3.3l-5-7.3c7.7-5.8,15.4-9.9,23-12.3V48
			h-23.7l-3.9-4.2H642L646,48z M622.2,86c-0.9,0-1.8-0.3-2.6-1c-0.8-0.7-1.3-1.5-1.5-2.5c-0.3-1.2,0-2.3,0.7-3.3
			c0.8-1,1.7-1.6,2.9-1.6c0.9,0,1.8,0.3,2.6,1c0.8,0.7,1.3,1.4,1.5,2.4c0.3,1.2,0,2.3-0.7,3.4C624.3,85.5,623.3,86,622.2,86z
			 M632.9,79.3V56.7c-3,1.1-5.9,2.4-8.6,3.8c-1.3,0.8-3.5,2.3-6.4,4.5C625,68.1,630,72.9,632.9,79.3z"/>
		<path d="M659.8,62.1c-1.1,1.4-2.2,2.2-3,2.5c-0.6,0.2-1.5,0.3-2.7,0.3c-2.4,0-4.5-1-6.3-2.9s-2.6-4.1-2.6-6.7
			c0-2.7,1.2-5.1,3.6-7.3c1.4-1.4,3.1-2,5-2c2.4,0,4.4,1,6.1,2.9c1.7,2,2.5,4.2,2.5,6.7C662.3,58,661.5,60.1,659.8,62.1z
			 M669.1,94.2l-4.7-4.7c-3.1-3.2-8.7-7.7-16.8-13.6v-9.2c2,1.6,4.9,4.4,8.8,8.3c2.2,2.2,6.5,7.5,12.7,15.7L669.1,94.2L669.1,94.2z
			 M655.7,58.9c1.2-0.9,2-1.8,2.3-2.5c0.2-0.5,0.3-1.4,0.3-2.8c0-2.2-0.8-3.3-2.6-3.3c-1.3,0-2.9,0.9-4.7,2.6
			c-1.2,1.1-1.9,2.8-1.9,5.1c-0.1,2,0.7,3,2.2,3C652.4,60.9,653.9,60.2,655.7,58.9z"/>
		<path d="M734.6,48h-20.8v3c0.2-0.1,0.5-0.2,0.8-0.2c3,0,5.9,1.4,8.6,4.2c2.5,2.6,4.2,5.5,4.8,8.7c0.3,1.3,0.4,2.4,0.4,3.4
			c0,2.1-0.5,3.9-1.6,5.4c-1.2,1.7-2.7,2.5-4.7,2.5c-1.3,0-2.5-0.5-3.5-1.5c-1-1-1.6-2.2-1.6-3.5c0-1.5,0.7-2.9,2.2-4.2
			c0.8-0.3,1.6-0.4,2.2-0.4c1.1,0,2.5,0.7,4,2.1c0.1-0.1,0.1-0.3,0.1-0.7c0-2.5-1-4.8-3-6.9c-2.5-2.6-5.4-3.8-8.7-3.4v32.6l-1.4-1.5
			l-1.2-3.6c-0.5-1.6-1.7-3.4-3.4-5.6c-1.8-2.2-3.3-3.7-4.7-4.7c-3.1-2-6.2-3.1-9.5-3.5l-5.4-6.9c2.1-1.8,4.5-3.5,7.2-5.2
			c5-3.2,9.9-5.5,14.6-7V48h-23.6l-3.9-4.2h48.4L734.6,48z M710,78.1V56.7c-3.7,1.5-6.7,3-8.9,4.5c0,0-1.7,1.3-5,3.7
			C702.3,67.7,707,72.1,710,78.1z"/>
		<path d="M757.9,47.9c-1.9,0-4,0.6-6.3,1.5s-4.3,2.1-5.7,3.3c-3.9,3.4-6.2,7.8-6.8,13.4c-0.6,4.6-0.6,7.9-0.2,10.1
			c0.8,3.7,2.8,6.5,6,8.7c0.3,0.2,0.8,0.3,1.6,0.3c0.7,0,1-0.1,0.9-0.3c-0.3,0-0.8-0.5-1.3-1.5c-0.6-1-0.9-1.7-0.9-2.1
			c-0.3-2,0.5-3.5,2.5-4.7c0.7-0.4,1.4-0.7,2.2-0.7c0.9,0,1.7,0.3,2.2,0.9c1.7,0.9,2.5,2.4,2.5,4.5c0,1.9-0.7,3.5-2.1,4.8
			s-3,1.9-4.8,1.9c-2.4,0-4.4-0.7-5.9-2c-3.4-2.9-5.5-6.8-6.5-11.7c-0.4-2.1-0.6-4.1-0.6-6c0-7.1,2.6-13.9,7.8-20.4h-11.7l-3.9-4.2
			h27.3L757.9,47.9z"/>
		<path d="M797.6,47.9H788v41.9l-4-4V63.2c0-1.4-0.6-2.7-1.8-3.8c-1.2-1.2-2.4-1.7-3.7-1.5c-0.9,0.1-1.7,0.7-2.1,1.6
			s-0.6,1.9-0.5,2.9l0.3,2.1l-1.6,0.7c0.1-0.3-0.2-0.9-0.8-2c-1-1.7-1.8-2.8-2.2-3.1c-1.4-1.5-3.2-2.2-5.5-2.2
			c-1.9,0-3.5,0.7-4.9,2.1c-1.4,1.4-2.1,3.1-2.1,5c0,3.3,1.7,5.2,5.1,5.8c-0.8-1-1.2-2.1-1.2-3.2c0-1.3,0.4-2.4,1.3-3.2
			c0.8-0.8,1.9-1.2,3.1-1.2c1.9,0,3.2,1.1,4.1,3.5c0.7,2,0.9,3.3,0.6,4.1c-1,2.6-3,3.9-5.8,3.9c-2.6,0-4.9-0.7-6.9-2.2
			s-3.2-3.5-3.7-6.2c-0.2-1-0.3-2.1-0.3-3.2c0-2.8,0.7-5.3,2.2-7.5c1.6-2.5,3.7-3.7,6.2-3.8c2.7,0,5.2,1,7.2,3.2l1.4,1.9
			c0-0.9,0.6-2,1.7-3.1s2.1-1.7,3-1.7c1.5,0.1,2.7,0.6,3.6,1.5c0.4,0.6,0.8,1.2,1.3,1.8c0.7,0.8,1.4,2,1.9,3.8V47.9H754l-4-4.2h43.6
			L797.6,47.9z"/>
		<path d="M843.9,48h-24.2c-0.6,0.2-1.4,0.7-2.4,1.4c-0.4,0.4-0.6,0.8-0.6,1.2c0,1.2,1.3,2.3,3.9,3.2c2.2,0.7,3.9,1,5.3,0.9
			c1.2-0.1,3.6-0.8,7-2c1.7,1.7,3.6,3.8,5.8,6.3c-1.1,1.1-2.2,2.8-3.5,5.2c-1.7,3.1-2.5,5.9-2.6,8.3c-0.3,1.8-0.4,3.4-0.4,4.9
			c0,3.1,1,7,2.9,11.7c0,0.1-0.1,0.1-0.2,0.1c-0.3,0-1-0.2-2-0.4c-1-0.3-1.6-0.5-1.6-0.7c-0.1-0.6-0.7-3.1-1.7-7.6
			c-0.9-3.8-1.3-6.8-1.3-8.9c0-3.6,0.8-7.6,2.4-12c-2.4,0-5.1-0.4-7.9-1.1c-3.5-0.9-5.8-2.2-6.9-3.7c-0.2-0.3-0.9-1.3-2.2-3.1
			c-0.1,0-0.2-0.1-0.3-0.1c-1.1,0-2.4,1.2-3.9,3.8s-2.2,4.4-2.2,5.7c0,1.8,1,2.8,2.9,2.8c1,0,3.2-0.9,6.5-2.7c1-0.5,1.7-0.8,1.9-0.9
			c0.2,0,0.4,0.1,0.5,0.2c0.3-0.1,1.1,0.7,2.3,2.3c1.7,2.2,2.8,4.4,3.2,6.5c0.4,1.7,0.3,3.5-0.2,5.2c-0.9,3.4-2.8,5.8-5.7,7.3
			c-1.4,0.7-2.9,1.1-4.5,1.1c-4.5,0-8.4-2.3-11.7-6.8c-1.5-1.9-2.8-4.8-4-8.6c-1-3-1.5-8.2-1.5-15.7c1.2,0.7,2,1.1,2.2,1.3
			c-0.3,4.7,0.5,9.2,2.4,13.6c1.4,3.3,3.8,6.1,7.2,8.3c1.4,0.9,2.9,1.2,4.5,1.1c2.1-0.2,3.9-0.6,5.5-1.4c2.2-1,3.3-2.4,3.3-4.2
			c0-0.7-0.2-1.4-0.5-2c-0.3-0.9-0.8-1.4-1.6-1.4c-0.3,0-0.6,0.1-0.9,0.2c-2.5,1.1-4.5,1.7-6.1,1.7c-1.3,0-2.6-0.3-3.9-1
			c-2.6-1.8-4.2-4.2-4.8-7.1c-0.4-2.1-0.3-4,0.3-5.7c0.4-1.1,1.4-2.7,2.9-4.6c0.5-0.5,1.2-1.3,2.1-2.4h-15.4l-3.9-4.2h49.9L843.9,48
			z"/>
	</g>
	<g>
		<path class="st0" d="M212.9,175.2h-7.9c-1.1,0-2-0.5-2.4-1.4c-0.5-1-0.7-2.5-0.7-4.6v-36.6c0-2.1,0.2-3.7,0.8-4.6
			c0.5-0.9,1.3-1.4,2.4-1.4h8.4c1.2,0,2.3,0.1,3.2,0.4c0.9,0.3,1.7,0.8,2.4,1.7c0.6,0.7,1.2,1.6,1.6,2.6c0.5,1.1,0.8,2.2,1.1,3.5
			s0.4,2.6,0.4,4c0,4.9-1.3,8.4-3.9,10.7c3.4,2,5.1,6,5.1,11.9c0,2.7-0.4,5.2-1.1,7.3c-0.7,2.2-1.7,3.8-3,4.8
			c-0.8,0.6-1.7,1.1-2.7,1.3C215.4,175,214.2,175.2,212.9,175.2z M207,133.9v12.6h4.8c1.3,0,2.3-0.2,3-0.7c0.7-0.5,1.3-1.3,1.6-2.7
			c0.3-0.9,0.4-2,0.4-3.1c0-2.5-0.5-4.1-1.4-4.9c-0.9-0.8-2.3-1.2-4.3-1.2H207z M212.5,153.6H207v14.2h5.6c3.5,0,5.3-2.4,5.3-7.2
			c0-2.5-0.5-4.2-1.4-5.3S214.3,153.6,212.5,153.6z"/>
		<path class="st0" d="M243,169.7l-1.2-6.1h-10.5l-1.2,6.2c-0.5,2.4-0.9,4.1-1.2,4.9c-0.3,0.9-0.9,1.3-1.7,1.3
			c-0.7,0-1.2-0.5-1.7-1.4c-0.5-0.9-0.8-1.9-0.8-3.1c0-0.7,0.1-1.3,0.2-2.1c0.1-0.7,0.3-1.7,0.6-3L232,135c0.2-0.9,0.4-2,0.7-3.3
			c0.3-1.3,0.5-2.3,0.8-3.2c0.3-0.8,0.7-1.5,1.2-2c0.5-0.5,1.1-0.8,1.8-0.8c0.7,0,1.3,0.3,1.8,0.8c0.5,0.5,0.9,1.2,1.2,2
			s0.6,1.7,0.8,2.6c0.2,0.9,0.5,2.2,0.8,3.8l6.8,31.4c0.5,2.4,0.8,4.1,0.8,5.2c0,1.1-0.3,2.2-0.8,3.1c-0.5,0.9-1.1,1.4-1.8,1.4
			c-0.4,0-0.8-0.1-1.1-0.4c-0.3-0.3-0.5-0.7-0.7-1.1s-0.4-1.2-0.6-2.2C243.4,171.3,243.2,170.4,243,169.7z M232.6,156.2h7.7
			l-3.9-20.1L232.6,156.2z"/>
		<path class="st0" d="M259.5,154.4h-1.8V170c0,2.1-0.2,3.6-0.7,4.5c-0.5,1-1.1,1.5-1.9,1.5c-0.8,0-1.5-0.5-1.9-1.5
			c-0.5-1-0.7-2.5-0.7-4.5v-37.4c0-2.1,0.3-3.7,0.8-4.6c0.5-1,1.3-1.4,2.5-1.4h8.5c1.2,0,2.2,0.1,3,0.3c0.8,0.2,1.6,0.6,2.3,1.1
			c0.8,0.6,1.5,1.6,2.2,2.8c0.6,1.2,1.1,2.6,1.4,4.2s0.5,3.3,0.5,5c0,3.6-0.5,6.5-1.6,8.7c-1.1,2.2-2.7,3.7-5,4.6
			c0.9,0.9,1.8,2.3,2.7,4.1c0.8,1.8,1.6,3.7,2.3,5.8c0.7,2,1.2,3.9,1.6,5.5c0.4,1.6,0.6,2.8,0.6,3.4c0,0.6-0.1,1.3-0.3,1.9
			c-0.2,0.6-0.5,1.1-0.9,1.5c-0.4,0.4-0.8,0.5-1.3,0.5c-0.6,0-1.1-0.3-1.5-0.8s-0.7-1.2-1-2s-0.7-2-1.2-3.5l-2.1-6.6
			c-0.8-2.4-1.4-4.2-2-5.5c-0.6-1.3-1.2-2.1-1.8-2.6C261.2,154.6,260.4,154.4,259.5,154.4z M262.5,133.9h-4.8v13.4h4.7
			c1.3,0,2.3-0.2,3.2-0.6s1.5-1.1,2-2.1c0.5-1,0.7-2.3,0.7-4.1c0-1.3-0.2-2.5-0.5-3.6c-0.4-1-0.9-1.8-1.5-2.3
			C265.5,134.2,264.3,133.9,262.5,133.9z"/>
		<path class="st0" d="M278.7,170v-38.3c0-2,0.2-3.5,0.7-4.5c0.5-1,1.1-1.5,1.9-1.5c0.8,0,1.4,0.5,1.9,1.5c0.5,1,0.7,2.5,0.7,4.5
			V170c0,2-0.2,3.5-0.7,4.5c-0.5,1-1.1,1.5-1.9,1.5c-0.8,0-1.4-0.5-1.9-1.5C278.9,173.5,278.7,172,278.7,170z"/>
		<path class="st0" d="M309.5,160.6c0,2.9-0.4,5.6-1.2,7.9c-0.8,2.3-2,4.2-3.5,5.5c-1.6,1.3-3.4,2-5.5,2c-2.6,0-4.7-0.9-6.3-2.7
			c-1.2-1.3-2.1-3-2.9-5.2s-1.1-4.3-1.1-6.4c0-1.2,0.2-2.2,0.7-3.1c0.4-0.9,1-1.3,1.7-1.3c0.6,0,1,0.3,1.4,1c0.4,0.7,0.7,1.6,1,3
			c0.3,1.5,0.7,2.8,1.1,3.9c0.4,1,0.9,1.9,1.6,2.6c0.7,0.7,1.6,1,2.7,1c1.6,0,2.8-0.7,3.8-2c1-1.4,1.5-3.1,1.5-5.1
			c0-1.6-0.3-2.9-0.8-3.9c-0.5-1-1.2-1.8-2-2.3c-0.8-0.5-1.9-1.1-3.3-1.7c-1.9-0.8-3.4-1.8-4.7-2.9c-1.3-1.1-2.2-2.6-3-4.5
			c-0.7-1.9-1.1-4.2-1.1-7c0-2.7,0.4-5.1,1.2-7.1c0.8-2.1,1.9-3.7,3.4-4.8c1.5-1.1,3.2-1.7,5.2-1.7c1.6,0,3,0.4,4.1,1.1
			c1.2,0.7,2.1,1.7,2.9,3c0.8,1.2,1.3,2.5,1.7,3.9c0.4,1.3,0.5,2.7,0.5,3.9c0,1.2-0.2,2.2-0.7,3.2c-0.4,0.9-1,1.4-1.7,1.4
			c-0.6,0-1.1-0.3-1.4-0.8c-0.3-0.6-0.7-1.5-1-2.8c-0.5-1.8-1-3.3-1.7-4.3c-0.7-1-1.7-1.5-3.2-1.5c-1.4,0-2.4,0.6-3.3,1.7
			c-0.8,1.1-1.2,2.5-1.2,4c0,1,0.1,1.8,0.4,2.5c0.3,0.7,0.7,1.3,1.2,1.8c0.5,0.5,1,0.9,1.5,1.2c0.5,0.3,1.3,0.7,2.5,1.3
			c1.5,0.6,2.8,1.3,4,2.1c1.2,0.8,2.2,1.7,3,2.8c0.8,1.1,1.5,2.5,1.9,4.2C309.2,156,309.5,158.1,309.5,160.6z"/>
		<path class="st0" d="M319.2,131.7v13.9h11.3v-13.9c0-2,0.2-3.5,0.7-4.5c0.5-1,1.1-1.5,1.9-1.5c0.8,0,1.4,0.5,1.9,1.5
			c0.5,1,0.7,2.5,0.7,4.5V170c0,2-0.2,3.5-0.7,4.5c-0.5,1-1.1,1.5-1.9,1.5c-0.8,0-1.4-0.5-1.9-1.5s-0.7-2.5-0.7-4.5v-16.4h-11.3V170
			c0,2-0.2,3.5-0.7,4.5c-0.5,1-1.1,1.5-1.9,1.5c-0.8,0-1.4-0.5-1.9-1.5c-0.5-1-0.7-2.5-0.7-4.5v-38.3c0-2,0.2-3.5,0.7-4.5
			c0.5-1,1.1-1.5,1.9-1.5c0.8,0,1.4,0.5,1.9,1.5C318.9,128.2,319.2,129.7,319.2,131.7z"/>
		<path class="st0" d="M357.9,169.7l-1.2-6.1h-10.5l-1.2,6.2c-0.5,2.4-0.9,4.1-1.2,4.9c-0.3,0.9-0.9,1.3-1.7,1.3
			c-0.7,0-1.2-0.5-1.7-1.4c-0.5-0.9-0.8-1.9-0.8-3.1c0-0.7,0.1-1.3,0.2-2.1c0.1-0.7,0.3-1.7,0.6-3l6.6-31.6c0.2-0.9,0.4-2,0.7-3.3
			c0.3-1.3,0.5-2.3,0.8-3.2c0.3-0.8,0.7-1.5,1.2-2c0.5-0.5,1.1-0.8,1.8-0.8c0.7,0,1.3,0.3,1.8,0.8c0.5,0.5,0.9,1.2,1.2,2
			s0.6,1.7,0.8,2.6c0.2,0.9,0.5,2.2,0.8,3.8l6.8,31.4c0.5,2.4,0.8,4.1,0.8,5.2c0,1.1-0.3,2.2-0.8,3.1c-0.5,0.9-1.1,1.4-1.8,1.4
			c-0.4,0-0.8-0.1-1.1-0.4c-0.3-0.3-0.5-0.7-0.7-1.1s-0.4-1.2-0.6-2.2C358.3,171.3,358.1,170.4,357.9,169.7z M347.6,156.2h7.7
			l-3.9-20.1L347.6,156.2z"/>
		<path class="st0" d="M372.5,131.7v35.4h10.6c0.8,0,1.5,0.4,2,1.2c0.5,0.8,0.7,1.7,0.7,2.9c0,1.2-0.2,2.2-0.7,2.9
			c-0.4,0.7-1.1,1.1-2,1.1h-12.7c-1.1,0-2-0.5-2.5-1.4c-0.5-1-0.8-2.5-0.8-4.6v-37.4c0-2,0.2-3.5,0.7-4.5c0.5-1,1.1-1.5,1.9-1.5
			c0.8,0,1.4,0.5,1.9,1.5C372.3,128.2,372.5,129.7,372.5,131.7z"/>
		<path class="st0" d="M415.3,134.1h-11.8v11.9h10.9c0.8,0,1.4,0.3,1.8,1s0.6,1.6,0.6,2.7s-0.2,2-0.6,2.7c-0.4,0.7-1,1-1.8,1h-10.9
			v13.8h12.2c0.8,0,1.4,0.4,1.9,1.1c0.4,0.7,0.6,1.7,0.6,2.9c0,1.2-0.2,2.1-0.6,2.8c-0.4,0.7-1,1.1-1.9,1.1h-14.3
			c-1.1,0-2-0.5-2.5-1.4c-0.5-1-0.8-2.5-0.8-4.6v-36.6c0-1.4,0.1-2.6,0.3-3.5s0.6-1.5,1.1-2c0.5-0.4,1.1-0.6,1.8-0.6h13.8
			c0.8,0,1.5,0.3,1.9,1s0.6,1.6,0.6,2.7c0,1.1-0.2,2.1-0.6,2.8S416.2,134.1,415.3,134.1z"/>
		<path class="st0" d="M429.2,131.6l10.1,28.7v-28.9c0-1.9,0.2-3.3,0.6-4.2c0.4-0.9,1-1.4,1.7-1.4c0.8,0,1.3,0.5,1.8,1.4
			c0.4,0.9,0.7,2.3,0.7,4.2v38.2c0,4.3-0.9,6.4-2.8,6.4c-0.5,0-0.9-0.1-1.3-0.4c-0.4-0.3-0.7-0.7-1.1-1.2s-0.6-1.2-0.9-1.9
			c-0.3-0.7-0.6-1.5-0.8-2.3l-9.8-28.3v28.5c0,1.9-0.2,3.3-0.7,4.2c-0.5,1-1,1.4-1.8,1.4c-0.7,0-1.3-0.5-1.8-1.4s-0.7-2.4-0.7-4.2
			v-37.5c0-1.6,0.1-2.8,0.3-3.7c0.2-1,0.6-1.8,1.1-2.4c0.5-0.6,1.1-0.9,1.7-0.9c0.5,0,0.9,0.1,1.2,0.4c0.3,0.3,0.6,0.7,0.9,1.2
			c0.3,0.5,0.5,1.1,0.8,1.9C428.7,130,429,130.8,429.2,131.6z"/>
		<path class="st0" d="M473.5,155.4v9.3c0,1.2-0.1,2.2-0.2,3c-0.1,0.7-0.4,1.4-0.7,2s-0.8,1.2-1.3,1.7c-1.6,1.6-3.1,2.8-4.5,3.5
			s-3,1.1-4.7,1.1c-2,0-3.8-0.6-5.4-1.7c-1.6-1.1-3-2.8-4.2-5c-1.2-2.2-2-4.8-2.7-8s-0.9-6.6-0.9-10.4c0-3.8,0.3-7.2,0.9-10.4
			s1.5-5.8,2.6-8c1.2-2.2,2.6-3.9,4.3-5s3.6-1.7,5.7-1.7c1.7,0,3.3,0.4,4.6,1.3c1.3,0.9,2.4,2,3.3,3.3c0.8,1.3,1.5,2.7,1.9,4.2
			c0.4,1.5,0.6,2.8,0.6,3.9c0,1.2-0.2,2.3-0.7,3.2c-0.5,0.9-1.1,1.3-1.8,1.3c-0.4,0-0.7-0.2-1.1-0.5c-0.3-0.3-0.6-0.8-0.9-1.4
			c-0.6-1.9-1.2-3.3-1.6-4.3c-0.4-1-1.1-1.8-1.8-2.5c-0.8-0.7-1.7-1-2.9-1c-1.2,0-2.3,0.4-3.2,1.2c-1,0.8-1.8,1.9-2.4,3.4
			c-0.7,1.5-1.2,3.3-1.6,5.5s-0.5,4.6-0.5,7.2c0,5.7,0.7,10.1,2.1,13.2c1.4,3.1,3.3,4.6,5.8,4.6c1.2,0,2.4-0.3,3.4-0.9
			c1.1-0.6,2.1-1.4,3.2-2.6V157h-4.1c-1,0-1.7-0.3-2.2-0.8c-0.5-0.6-0.8-1.5-0.8-2.8c0-1.1,0.2-2,0.6-2.7s1-1.1,1.7-1.1h6
			c0.7,0,1.3,0.1,1.9,0.4c0.5,0.2,0.9,0.8,1.2,1.6C473.4,152.5,473.5,153.7,473.5,155.4z"/>
		<path class="st0" d="M478.7,170v-38.3c0-2,0.2-3.5,0.7-4.5c0.5-1,1.1-1.5,1.9-1.5c0.8,0,1.4,0.5,1.9,1.5c0.5,1,0.7,2.5,0.7,4.5
			V170c0,2-0.2,3.5-0.7,4.5s-1.1,1.5-1.9,1.5c-0.8,0-1.4-0.5-1.9-1.5S478.7,172,478.7,170z"/>
		<path class="st0" d="M496.7,131.6l10.1,28.7v-28.9c0-1.9,0.2-3.3,0.6-4.2c0.4-0.9,1-1.4,1.7-1.4c0.8,0,1.3,0.5,1.8,1.4
			c0.4,0.9,0.7,2.3,0.7,4.2v38.2c0,4.3-0.9,6.4-2.8,6.4c-0.5,0-0.9-0.1-1.3-0.4c-0.4-0.3-0.7-0.7-1.1-1.2c-0.3-0.6-0.6-1.2-0.9-1.9
			c-0.3-0.7-0.6-1.5-0.8-2.3l-9.8-28.3v28.5c0,1.9-0.2,3.3-0.7,4.2c-0.5,1-1,1.4-1.8,1.4c-0.7,0-1.3-0.5-1.8-1.4s-0.7-2.4-0.7-4.2
			v-37.5c0-1.6,0.1-2.8,0.3-3.7c0.2-1,0.6-1.8,1.1-2.4c0.5-0.6,1.1-0.9,1.7-0.9c0.5,0,0.9,0.1,1.2,0.4c0.3,0.3,0.6,0.7,0.9,1.2
			c0.3,0.5,0.5,1.1,0.8,1.9C496.1,130,496.4,130.8,496.7,131.6z"/>
		<path class="st0" d="M534.4,134.1h-11.8v11.9h10.9c0.8,0,1.4,0.3,1.8,1s0.6,1.6,0.6,2.7s-0.2,2-0.6,2.7c-0.4,0.7-1,1-1.8,1h-10.9
			v13.8h12.2c0.8,0,1.4,0.4,1.9,1.1c0.4,0.7,0.6,1.7,0.6,2.9c0,1.2-0.2,2.1-0.6,2.8c-0.4,0.7-1,1.1-1.9,1.1h-14.3
			c-1.1,0-2-0.5-2.5-1.4c-0.5-1-0.8-2.5-0.8-4.6v-36.6c0-1.4,0.1-2.6,0.3-3.5s0.6-1.5,1.1-2c0.5-0.4,1.1-0.6,1.8-0.6h13.8
			c0.8,0,1.5,0.3,1.9,1s0.6,1.6,0.6,2.7c0,1.1-0.2,2.1-0.6,2.8S535.2,134.1,534.4,134.1z"/>
		<path class="st0" d="M558.5,134.1h-11.8v11.9h10.9c0.8,0,1.4,0.3,1.8,1s0.6,1.6,0.6,2.7s-0.2,2-0.6,2.7c-0.4,0.7-1,1-1.8,1h-10.9
			v13.8h12.2c0.8,0,1.4,0.4,1.9,1.1c0.4,0.7,0.6,1.7,0.6,2.9c0,1.2-0.2,2.1-0.6,2.8c-0.4,0.7-1,1.1-1.9,1.1h-14.3
			c-1.1,0-2-0.5-2.5-1.4c-0.5-1-0.8-2.5-0.8-4.6v-36.6c0-1.4,0.1-2.6,0.3-3.5s0.6-1.5,1.1-2c0.5-0.4,1.1-0.6,1.8-0.6h13.8
			c0.8,0,1.5,0.3,1.9,1s0.6,1.6,0.6,2.7c0,1.1-0.2,2.1-0.6,2.8S559.4,134.1,558.5,134.1z"/>
		<path class="st0" d="M572.6,154.4h-1.8V170c0,2.1-0.2,3.6-0.7,4.5c-0.5,1-1.1,1.5-1.9,1.5c-0.8,0-1.5-0.5-1.9-1.5
			c-0.5-1-0.7-2.5-0.7-4.5v-37.4c0-2.1,0.3-3.7,0.8-4.6c0.5-1,1.3-1.4,2.5-1.4h8.5c1.2,0,2.2,0.1,3,0.3s1.6,0.6,2.3,1.1
			c0.8,0.6,1.5,1.6,2.2,2.8c0.6,1.2,1.1,2.6,1.4,4.2c0.3,1.6,0.5,3.3,0.5,5c0,3.6-0.5,6.5-1.6,8.7s-2.7,3.7-5,4.6
			c0.9,0.9,1.8,2.3,2.7,4.1c0.8,1.8,1.6,3.7,2.3,5.8c0.7,2,1.2,3.9,1.6,5.5c0.4,1.6,0.6,2.8,0.6,3.4c0,0.6-0.1,1.3-0.3,1.9
			c-0.2,0.6-0.5,1.1-0.9,1.5c-0.4,0.4-0.8,0.5-1.3,0.5c-0.6,0-1.1-0.3-1.5-0.8s-0.7-1.2-1-2s-0.7-2-1.2-3.5l-2.1-6.6
			c-0.8-2.4-1.4-4.2-2-5.5s-1.2-2.1-1.8-2.6C574.3,154.6,573.6,154.4,572.6,154.4z M575.6,133.9h-4.8v13.4h4.7
			c1.3,0,2.3-0.2,3.2-0.6s1.5-1.1,2-2.1c0.5-1,0.7-2.3,0.7-4.1c0-1.3-0.2-2.5-0.5-3.6c-0.4-1-0.9-1.8-1.5-2.3
			C578.6,134.2,577.4,133.9,575.6,133.9z"/>
		<path class="st0" d="M591.8,170v-38.3c0-2,0.2-3.5,0.7-4.5c0.5-1,1.1-1.5,1.9-1.5c0.8,0,1.4,0.5,1.9,1.5c0.5,1,0.7,2.5,0.7,4.5
			V170c0,2-0.2,3.5-0.7,4.5s-1.1,1.5-1.9,1.5c-0.8,0-1.4-0.5-1.9-1.5S591.8,172,591.8,170z"/>
		<path class="st0" d="M609.8,131.6l10.1,28.7v-28.9c0-1.9,0.2-3.3,0.6-4.2c0.4-0.9,1-1.4,1.7-1.4c0.8,0,1.3,0.5,1.8,1.4
			c0.4,0.9,0.7,2.3,0.7,4.2v38.2c0,4.3-0.9,6.4-2.8,6.4c-0.5,0-0.9-0.1-1.3-0.4c-0.4-0.3-0.7-0.7-1.1-1.2c-0.3-0.6-0.6-1.2-0.9-1.9
			c-0.3-0.7-0.6-1.5-0.8-2.3l-9.8-28.3v28.5c0,1.9-0.2,3.3-0.7,4.2c-0.5,1-1,1.4-1.8,1.4c-0.7,0-1.3-0.5-1.8-1.4s-0.7-2.4-0.7-4.2
			v-37.5c0-1.6,0.1-2.8,0.3-3.7c0.2-1,0.6-1.8,1.1-2.4c0.5-0.6,1.1-0.9,1.7-0.9c0.5,0,0.9,0.1,1.2,0.4c0.3,0.3,0.6,0.7,0.9,1.2
			c0.3,0.5,0.5,1.1,0.8,1.9C609.2,130,609.5,130.8,609.8,131.6z"/>
		<path class="st0" d="M654,155.4v9.3c0,1.2-0.1,2.2-0.2,3c-0.1,0.7-0.4,1.4-0.7,2s-0.8,1.2-1.3,1.7c-1.6,1.6-3.1,2.8-4.5,3.5
			s-3,1.1-4.7,1.1c-2,0-3.8-0.6-5.4-1.7c-1.6-1.1-3-2.8-4.2-5c-1.2-2.2-2-4.8-2.7-8s-0.9-6.6-0.9-10.4c0-3.8,0.3-7.2,0.9-10.4
			s1.5-5.8,2.6-8c1.2-2.2,2.6-3.9,4.3-5s3.6-1.7,5.7-1.7c1.7,0,3.3,0.4,4.6,1.3c1.3,0.9,2.4,2,3.3,3.3c0.8,1.3,1.5,2.7,1.9,4.2
			c0.4,1.5,0.6,2.8,0.6,3.9c0,1.2-0.2,2.3-0.7,3.2c-0.5,0.9-1.1,1.3-1.8,1.3c-0.4,0-0.7-0.2-1.1-0.5c-0.3-0.3-0.6-0.8-0.9-1.4
			c-0.6-1.9-1.2-3.3-1.6-4.3c-0.4-1-1.1-1.8-1.8-2.5c-0.8-0.7-1.7-1-2.9-1c-1.2,0-2.3,0.4-3.2,1.2c-1,0.8-1.8,1.9-2.4,3.4
			c-0.7,1.5-1.2,3.3-1.6,5.5s-0.5,4.6-0.5,7.2c0,5.7,0.7,10.1,2.1,13.2c1.4,3.1,3.3,4.6,5.8,4.6c1.2,0,2.4-0.3,3.4-0.9
			c1.1-0.6,2.1-1.4,3.2-2.6V157h-4.1c-1,0-1.7-0.3-2.2-0.8c-0.5-0.6-0.8-1.5-0.8-2.8c0-1.1,0.2-2,0.6-2.7s1-1.1,1.7-1.1h6
			c0.7,0,1.3,0.1,1.9,0.4c0.5,0.2,0.9,0.8,1.2,1.6C653.9,152.5,654,153.7,654,155.4z"/>
		<path class="st0" d="M690.1,159.8c0,1.5-0.2,3.2-0.6,5c-0.4,1.8-1,3.6-1.9,5.3c-0.9,1.7-2,3.1-3.3,4.2c-1.4,1.1-2.9,1.6-4.7,1.6
			c-1.4,0-2.6-0.2-3.7-0.7c-1.1-0.5-2.1-1.2-3-2.3c-0.9-1-1.8-2.4-2.5-4.1c-0.7-1.5-1.3-3.2-1.7-5.1c-0.5-1.9-0.8-3.9-1.1-6.1
			s-0.4-4.4-0.4-6.8c0-3.9,0.3-7.4,0.9-10.5s1.5-5.7,2.6-7.9c1.1-2.2,2.5-3.9,4-5c1.5-1.1,3.1-1.7,4.9-1.7c2.1,0,4,0.8,5.6,2.4
			c1.6,1.6,2.9,3.5,3.8,5.8s1.3,4.5,1.3,6.6c0,1.1-0.2,2.1-0.6,3c-0.4,0.9-0.9,1.3-1.5,1.3c-0.7,0-1.2-0.3-1.5-0.9s-0.7-1.6-1.1-3.1
			c-0.7-2.4-1.5-4.2-2.4-5.4c-0.9-1.2-2.1-1.8-3.4-1.8c-2.2,0-3.9,1.5-5.1,4.6c-1.3,3.1-1.9,7.4-1.9,13.1c0,3.8,0.3,6.9,0.8,9.4
			s1.4,4.4,2.4,5.6c1,1.2,2.2,1.9,3.6,1.9c1.5,0,2.8-0.7,3.8-2.1s1.8-3.5,2.4-6.2c0.2-1.3,0.5-2.3,0.8-3.1c0.3-0.8,0.9-1.2,1.6-1.2
			c0.6,0,1.2,0.4,1.6,1.2C689.9,157.6,690.1,158.6,690.1,159.8z"/>
		<path class="st0" d="M706.2,125.7c2.7,0,5,1,6.9,3.1c1.9,2,3.4,5,4.4,8.7c1,3.8,1.5,8.2,1.5,13.3c0,3.8-0.3,7.2-0.8,10.2
			c-0.5,3.1-1.4,5.7-2.4,8c-1.1,2.3-2.4,4-4,5.2c-1.6,1.2-3.4,1.8-5.4,1.8c-2,0-3.8-0.6-5.4-1.8c-1.6-1.2-2.9-3-4-5.2
			s-1.9-4.9-2.4-8.1c-0.5-3.1-0.8-6.5-0.8-10.2c0-3.7,0.3-7.2,0.9-10.3c0.6-3.1,1.4-5.8,2.5-8c1.1-2.2,2.4-3.9,4-5
			C702.5,126.3,704.3,125.7,706.2,125.7z M713.7,150.7c0-3.6-0.3-6.6-0.9-9.3s-1.5-4.6-2.6-5.9c-1.1-1.3-2.4-2-3.9-2
			c-1,0-2,0.4-2.9,1.1c-0.9,0.7-1.7,1.8-2.3,3.2s-1.1,3.2-1.5,5.4s-0.6,4.7-0.6,7.4c0,2.8,0.2,5.3,0.6,7.5c0.4,2.2,0.9,4.1,1.6,5.6
			c0.7,1.5,1.5,2.6,2.3,3.3s1.8,1.1,2.9,1.1c1.3,0,2.6-0.6,3.7-1.9c1.1-1.3,2-3.2,2.7-5.8C713.4,157.8,713.7,154.6,713.7,150.7z"/>
		<path class="st0" d="M728.6,131.7v35.4h10.6c0.8,0,1.5,0.4,2,1.2c0.5,0.8,0.7,1.7,0.7,2.9c0,1.2-0.2,2.2-0.7,2.9
			c-0.4,0.7-1.1,1.1-2,1.1h-12.7c-1.1,0-2-0.5-2.5-1.4c-0.5-1-0.8-2.5-0.8-4.6v-37.4c0-2,0.2-3.5,0.7-4.5c0.5-1,1.1-1.5,1.9-1.5
			c0.8,0,1.4,0.5,1.9,1.5C728.4,128.2,728.6,129.7,728.6,131.7z"/>
		<path class="st0" d="M750.5,131.7v35.4h10.6c0.8,0,1.5,0.4,2,1.2c0.5,0.8,0.7,1.7,0.7,2.9c0,1.2-0.2,2.2-0.7,2.9
			c-0.4,0.7-1.1,1.1-2,1.1h-12.7c-1.1,0-2-0.5-2.5-1.4c-0.5-1-0.8-2.5-0.8-4.6v-37.4c0-2,0.2-3.5,0.7-4.5c0.5-1,1.1-1.5,1.9-1.5
			c0.8,0,1.4,0.5,1.9,1.5C750.2,128.2,750.5,129.7,750.5,131.7z"/>
		<path class="st0" d="M784.3,134.1h-11.8v11.9h10.9c0.8,0,1.4,0.3,1.8,1s0.6,1.6,0.6,2.7s-0.2,2-0.6,2.7c-0.4,0.7-1,1-1.8,1h-10.9
			v13.8h12.2c0.8,0,1.4,0.4,1.9,1.1c0.4,0.7,0.6,1.7,0.6,2.9c0,1.2-0.2,2.1-0.6,2.8c-0.4,0.7-1,1.1-1.9,1.1h-14.3
			c-1.1,0-2-0.5-2.5-1.4c-0.5-1-0.8-2.5-0.8-4.6v-36.6c0-1.4,0.1-2.6,0.3-3.5s0.6-1.5,1.1-2c0.5-0.4,1.1-0.6,1.8-0.6h13.8
			c0.8,0,1.5,0.3,1.9,1s0.6,1.6,0.6,2.7c0,1.1-0.2,2.1-0.6,2.8S785.1,134.1,784.3,134.1z"/>
		<path class="st0" d="M815,155.4v9.3c0,1.2-0.1,2.2-0.2,3c-0.1,0.7-0.4,1.4-0.7,2s-0.8,1.2-1.3,1.7c-1.6,1.6-3.1,2.8-4.5,3.5
			s-3,1.1-4.7,1.1c-2,0-3.8-0.6-5.4-1.7c-1.6-1.1-3-2.8-4.2-5c-1.2-2.2-2-4.8-2.7-8s-0.9-6.6-0.9-10.4c0-3.8,0.3-7.2,0.9-10.4
			s1.5-5.8,2.6-8c1.2-2.2,2.6-3.9,4.3-5s3.6-1.7,5.7-1.7c1.7,0,3.3,0.4,4.6,1.3c1.3,0.9,2.4,2,3.3,3.3c0.8,1.3,1.5,2.7,1.9,4.2
			c0.4,1.5,0.6,2.8,0.6,3.9c0,1.2-0.2,2.3-0.7,3.2c-0.5,0.9-1.1,1.3-1.8,1.3c-0.4,0-0.7-0.2-1.1-0.5c-0.3-0.3-0.6-0.8-0.9-1.4
			c-0.6-1.9-1.2-3.3-1.6-4.3c-0.4-1-1.1-1.8-1.8-2.5c-0.8-0.7-1.7-1-2.9-1c-1.2,0-2.3,0.4-3.2,1.2c-1,0.8-1.8,1.9-2.4,3.4
			c-0.7,1.5-1.2,3.3-1.6,5.5s-0.5,4.6-0.5,7.2c0,5.7,0.7,10.1,2.1,13.2c1.4,3.1,3.3,4.6,5.8,4.6c1.2,0,2.4-0.3,3.4-0.9
			c1.1-0.6,2.1-1.4,3.2-2.6V157h-4.1c-1,0-1.7-0.3-2.2-0.8c-0.5-0.6-0.8-1.5-0.8-2.8c0-1.1,0.2-2,0.6-2.7s1-1.1,1.7-1.1h6
			c0.7,0,1.3,0.1,1.9,0.4c0.5,0.2,0.9,0.8,1.2,1.6C814.8,152.5,815,153.7,815,155.4z"/>
		<path class="st0" d="M837,134.1h-11.8v11.9h10.9c0.8,0,1.4,0.3,1.8,1s0.6,1.6,0.6,2.7s-0.2,2-0.6,2.7c-0.4,0.7-1,1-1.8,1h-10.9
			v13.8h12.2c0.8,0,1.4,0.4,1.9,1.1c0.4,0.7,0.6,1.7,0.6,2.9c0,1.2-0.2,2.1-0.6,2.8c-0.4,0.7-1,1.1-1.9,1.1h-14.3
			c-1.1,0-2-0.5-2.5-1.4c-0.5-1-0.8-2.5-0.8-4.6v-36.6c0-1.4,0.1-2.6,0.3-3.5s0.6-1.5,1.1-2c0.5-0.4,1.1-0.6,1.8-0.6H837
			c0.8,0,1.5,0.3,1.9,1s0.6,1.6,0.6,2.7c0,1.1-0.2,2.1-0.6,2.8S837.9,134.1,837,134.1z"/>
	</g>
</g>
<image style="overflow:visible;" width="1802" height="1802" xlink:href="../../../../Users/USER/Downloads/bec.png"  transform="matrix(9.981583e-02 0 0 9.981583e-02 9.0549 10.5542)">
</image>
</svg>
